<?xml version="1.0" encoding="utf-8"?>
<!-- Generator: Adobe Illustrator 19.2.1, SVG Export Plug-In . SVG Version: 6.00 Build 0)  -->
<svg version="1.1" id="Calque_1" xmlns="http://www.w3.org/2000/svg" xmlns:xlink="http://www.w3.org/1999/xlink" x="0px" y="0px"
	 viewBox="0 0 17 18" style="enable-background:new 0 0 17 18;" xml:space="preserve">
<style type="text/css">
	.st0{fill:#1C1833;}
</style>
<title>cart</title>
<desc>Created with Sketch.</desc>
<g id="Produit">
	<g id="choisissez-votre-produit" transform="translate(-1083.000000, -237.000000)">
		<g transform="translate(1047.000000, 224.000000)">
			<g id="titre" transform="translate(21.000000, 0.000000)">
				<path id="cart" class="st0" d="M15.6,27.4h0.7c-0.5,0.9-0.4,2.1,0.4,2.9c0.4,0.5,1,0.7,1.6,0.7s1.2-0.2,1.6-0.7
					c0.4-0.4,0.7-1.1,0.7-1.7c0-0.4-0.1-0.8-0.3-1.2h2.8c-0.5,0.9-0.4,2.1,0.4,2.9c0.4,0.5,1,0.7,1.6,0.7s1.2-0.2,1.6-0.7
					c0.4-0.4,0.7-1.1,0.7-1.7c0-0.4-0.1-0.8-0.3-1.2h0.8c0.3,0,0.6-0.3,0.6-0.6c0-0.4-0.3-0.6-0.6-0.6H16.2v-1.2h13.2
					c0.3,0,0.5-0.2,0.6-0.5l2-7.7c0-0.2,0-0.4-0.1-0.5c-0.1-0.2-0.3-0.2-0.5-0.2H16.2v-2.3c0-0.4-0.3-0.6-0.6-0.6S15,13.3,15,13.6
					v2.9v7.7v2.5C15,27.2,15.3,27.4,15.6,27.4L15.6,27.4z M24.3,27.8c0.2-0.2,0.5-0.3,0.8-0.3s0.6,0.1,0.8,0.3s0.3,0.5,0.3,0.8
					s-0.1,0.6-0.3,0.8c-0.4,0.4-1.1,0.4-1.5,0C23.9,29,23.9,28.2,24.3,27.8L24.3,27.8z M17.5,27.8c0.2-0.2,0.5-0.3,0.8-0.3
					s0.6,0.1,0.8,0.3s0.3,0.5,0.3,0.8s-0.1,0.6-0.3,0.8c-0.4,0.4-1.1,0.4-1.5,0C17.1,29,17.1,28.2,17.5,27.8L17.5,27.8z M16.2,17.2
					h14.4l-1.7,6.5H16.2V17.2L16.2,17.2z"/>
			</g>
		</g>
	</g>
</g>
</svg>
