<?xml version="1.0" encoding="UTF-8" standalone="no"?>
<svg width="22px" height="18px" viewBox="0 0 22 18" version="1.1" xmlns="http://www.w3.org/2000/svg" xmlns:xlink="http://www.w3.org/1999/xlink">
    <!-- Generator: Sketch 3.8.3 (29802) - http://www.bohemiancoding.com/sketch -->
    <title>shop</title>
    <desc>Created with Sketch.</desc>
    <defs></defs>
    <g id="Produit" stroke="none" stroke-width="1" fill="none" fill-rule="evenodd">
        <g transform="translate(-1080.000000, -684.000000)" id="votre-vendeur">
            <g transform="translate(1029.000000, 671.000000)">
                <g id="titre">
                    <g id="shop" transform="translate(52.000000, 14.000000)">
                        <path d="M17.9062,15.6316667 L1.9062,15.6316667 C1.5382,15.6316667 1.23953333,15.333 1.23953333,14.965 L1.23953333,6.29833333 L18.5728667,6.29833333 L18.5728667,14.965 C18.5728667,15.333 18.2742,15.6316667 17.9062,15.6316667" id="Fill-1" fill="#FAFAFA"></path>
                        <path d="M17.9062,15.6316667 L1.9062,15.6316667 C1.5382,15.6316667 1.23953333,15.333 1.23953333,14.965 L1.23953333,6.29833333 L18.5728667,6.29833333 L18.5728667,14.965 C18.5728667,15.333 18.2742,15.6316667 17.9062,15.6316667 L17.9062,15.6316667 Z" id="Stroke-3" stroke="#1C1833"></path>
                        <path d="M11.3722667,15.6316667 L8.7056,15.6316667 C8.46426667,15.6316667 8.26826667,15.4356667 8.26826667,15.1943333 L8.26826667,12.0896667 C8.26826667,11.1116667 9.06093333,10.319 10.0389333,10.319 L10.0389333,10.319 C11.0169333,10.319 11.8096,11.1116667 11.8096,12.0896667 L11.8096,15.1943333 C11.8096,15.4356667 11.6136,15.6316667 11.3722667,15.6316667" id="Fill-5" fill="#FAFAFA"></path>
                        <path d="M11.3722667,15.6316667 L8.7056,15.6316667 C8.46426667,15.6316667 8.26826667,15.4356667 8.26826667,15.1943333 L8.26826667,12.0896667 C8.26826667,11.1116667 9.06093333,10.319 10.0389333,10.319 L10.0389333,10.319 C11.0169333,10.319 11.8096,11.1116667 11.8096,12.0896667 L11.8096,15.1943333 C11.8096,15.4356667 11.6136,15.6316667 11.3722667,15.6316667 L11.3722667,15.6316667 Z" id="Stroke-7" stroke="#1C1833"></path>
                        <path d="M19.8133333,5.98666667 L19.8133333,6.33333333 C19.8133333,7.40666667 18.9466667,8.28 17.8666667,8.28 C16.7933333,8.28 15.92,7.40666667 15.92,6.33333333 C15.92,7.40666667 15.0466667,8.28 13.9733333,8.28 C12.8933333,8.28 12.02,7.40666667 12.02,6.33333333 C12.02,7.40666667 11.1533333,8.28 10.0733333,8.28 C9,8.28 8.12666667,7.40666667 8.12666667,6.33333333 C8.12666667,7.40666667 7.25333333,8.28 6.18,8.28 C5.1,8.28 4.23333333,7.40666667 4.23333333,6.33333333 C4.23333333,7.40666667 3.36,8.28 2.28,8.28 C1.20666667,8.28 0.333333333,7.40666667 0.333333333,6.33333333 L0.333333333,5.98666667 L0.333333333,5.04 C0.333333333,4.99333333 0.346666667,4.95333333 0.36,4.91333333 L1.5,0.553333333 C1.56666667,0.42 1.72,0.333333333 1.9,0.333333333 L18.2533333,0.333333333 C18.4266667,0.333333333 18.5866667,0.42 18.6466667,0.553333333 L19.7866667,4.91333333 C19.8066667,4.95333333 19.8133333,4.99333333 19.8133333,5.04 L19.8133333,5.98666667 Z" id="Fill-9" fill="#FAFAFA"></path>
                        <path d="M19.8133333,5.98666667 L19.8133333,6.33333333 C19.8133333,7.40666667 18.9466667,8.28 17.8666667,8.28 C16.7933333,8.28 15.92,7.40666667 15.92,6.33333333 C15.92,7.40666667 15.0466667,8.28 13.9733333,8.28 C12.8933333,8.28 12.02,7.40666667 12.02,6.33333333 C12.02,7.40666667 11.1533333,8.28 10.0733333,8.28 C9,8.28 8.12666667,7.40666667 8.12666667,6.33333333 C8.12666667,7.40666667 7.25333333,8.28 6.18,8.28 C5.1,8.28 4.23333333,7.40666667 4.23333333,6.33333333 C4.23333333,7.40666667 3.36,8.28 2.28,8.28 C1.20666667,8.28 0.333333333,7.40666667 0.333333333,6.33333333 L0.333333333,5.98666667 L0.333333333,5.04 C0.333333333,4.99333333 0.346666667,4.95333333 0.36,4.91333333 L1.5,0.553333333 C1.56666667,0.42 1.72,0.333333333 1.9,0.333333333 L18.2533333,0.333333333 C18.4266667,0.333333333 18.5866667,0.42 18.6466667,0.553333333 L19.7866667,4.91333333 C19.8066667,4.95333333 19.8133333,4.99333333 19.8133333,5.04 L19.8133333,5.98666667 L19.8133333,5.98666667 Z" id="Stroke-11" stroke="#1C1833"></path>
                    </g>
                </g>
            </g>
        </g>
    </g>
</svg>