<?xml version="1.0" encoding="UTF-8" standalone="no"?>
<svg width="57px" height="50px" viewBox="0 0 57 50" version="1.1" xmlns="http://www.w3.org/2000/svg" xmlns:xlink="http://www.w3.org/1999/xlink">
    <!-- Generator: Sketch 3.8.3 (29802) - http://www.bohemiancoding.com/sketch -->
    <title>ic_return</title>
    <desc>Created with Sketch.</desc>
    <defs>
        <rect id="path-1" x="13.3035914" y="0.235042829" width="31.4842495" height="30.4716238"></rect>
        <mask id="mask-2" maskContentUnits="userSpaceOnUse" maskUnits="objectBoundingBox" x="0" y="0" width="31.4842495" height="30.4716238" fill="white">
            <use xlink:href="#path-1"></use>
        </mask>
        <rect id="path-3" x="11.0138278" y="0.235042829" width="36.0637767" height="8.31044286" rx="2"></rect>
        <mask id="mask-4" maskContentUnits="userSpaceOnUse" maskUnits="objectBoundingBox" x="0" y="0" width="36.0637767" height="8.31044286" fill="white">
            <use xlink:href="#path-3"></use>
        </mask>
    </defs>
    <g id="Paiement" stroke="none" stroke-width="1" fill="none" fill-rule="evenodd">
        <g id="paiement" transform="translate(-1094.000000, -1013.000000)">
            <g id="paiement-+-livraison-+-retour" transform="translate(161.000000, 1014.000000)">
                <g id="retour" transform="translate(806.000000, 0.000000)">
                    <g id="ic_return" transform="translate(127.000000, 0.000000)">
                        <g id="Group-4">
                            <g id="Group-3" transform="translate(0.000000, 18.293333)">
                                <g id="Group-2" transform="translate(7.636706, 10.737849)">
                                    <path d="M45.7554997,2.94 L0.485499228,2.94" id="Path-453-Copy" stroke="#68C258" stroke-linecap="round"></path>
                                    <path d="M48.8459244,3.22057305 L44.3249863,5.82107679 C44.0555945,5.97603454 43.8372093,5.81352185 43.8372093,5.47223179 L43.8372093,0.407762647 C43.8372093,0.0601431286 44.0594859,-0.0938016957 44.3249863,0.0589176547 L48.8459244,2.6594214 C49.1153162,2.81437915 49.1114248,3.06785369 48.8459244,3.22057305 Z" id="Triangle-7" fill="#68C258"></path>
                                </g>
                                <g id="Group-2-Copy" transform="translate(25.363294, 21.166882) scale(-1, 1) translate(-25.363294, -21.166882) translate(0.363294, 18.166882)">
                                    <path d="M46.1413634,2.94 L0.441756817,2.94" id="Path-453-Copy" stroke="#68C258" stroke-linecap="round"></path>
                                    <path d="M48.9508404,3.22057305 L44.8408966,5.82107679 C44.595995,5.97603454 44.397463,5.81352185 44.397463,5.47223179 L44.397463,0.407762647 C44.397463,0.0601431286 44.5995327,-0.0938016957 44.8408966,0.0589176547 L48.9508404,2.6594214 C49.195742,2.81437915 49.1922043,3.06785369 48.9508404,3.22057305 Z" id="Triangle-7" fill="#68C258"></path>
                                </g>
                                <use id="Rectangle-201" stroke="#68C258" mask="url(#mask-2)" stroke-width="2" fill="#E9F6E6" xlink:href="#path-1"></use>
                                <use id="Rectangle-201-Copy" stroke="#68C258" mask="url(#mask-4)" stroke-width="2" fill="#FFFFFF" xlink:href="#path-3"></use>
                            </g>
                            <ellipse id="Oval-244" stroke="#68C258" cx="29.3255814" cy="7.51333333" rx="7.48837209" ry="7.51333333"></ellipse>
                            <path d="M29.2435501,3.92 L29.2435501,6.91020933 C29.2435501,7.46758975 29.6898209,7.91943587 30.2531428,7.91943587 L31.8742996,7.91943587" id="Path-460" stroke="#68C258" stroke-linecap="round"></path>
                        </g>
                        <circle id="Oval-100" stroke="#68C258" cx="44.5" cy="4.5" r="1.5"></circle>
                        <circle id="Oval-100-Copy" stroke="#68C258" cx="13.5" cy="12.5" r="1.5"></circle>
                        <circle id="Oval-100-Copy-2" fill="#68C258" cx="1" cy="28" r="1"></circle>
                        <circle id="Oval-100-Copy-3" fill="#68C258" cx="54" cy="45" r="1"></circle>
                        <path d="M24.7113068,35.5438003 L24.7113068,36.5920136 C24.9442442,36.5628964 25.1917366,36.5483381 25.4537912,36.5483381 C25.7643744,36.5483381 26.0531155,36.5895868 26.320023,36.6720855 C26.5869305,36.7545841 26.817438,36.8807567 27.0115526,37.0506069 C27.2056671,37.2204571 27.3609564,37.4291271 27.4774251,37.6766232 C27.5938939,37.9241192 27.6521274,38.2080075 27.6521274,38.5282965 C27.6521274,38.8388797 27.5914675,39.1179152 27.4701459,39.3654112 C27.3488243,39.6129073 27.1862558,39.8215773 26.9824355,39.9914275 C26.7786153,40.1612777 26.5408285,40.2923031 26.2690682,40.3845075 C25.9973078,40.4767119 25.7109932,40.5228134 25.4101156,40.5228134 C24.7015976,40.5228134 24.1629378,40.311717 23.7941202,39.8895179 C23.4253025,39.4673187 23.2311909,38.9213798 23.2117795,38.2516846 L21.9743055,38.2516846 C21.9645997,38.7854996 22.039818,39.2610731 22.1999625,39.6784194 C22.360107,40.0957656 22.5906145,40.4475929 22.8914921,40.7339119 C23.1923696,41.0202308 23.5563289,41.23618 23.9833809,41.3817659 C24.4104329,41.5273518 24.8860064,41.6001437 25.4101156,41.6001437 C25.895402,41.6001437 26.3539907,41.534631 26.7858955,41.4036037 C27.2178004,41.2725764 27.5938917,41.0760384 27.9141807,40.8139837 C28.2344697,40.5519291 28.4892412,40.2243657 28.6785028,39.8312838 C28.8677645,39.4382019 28.9623939,38.9844659 28.9623939,38.4700624 C28.9623939,37.8488959 28.809531,37.3102361 28.5038006,36.8540669 C28.1980702,36.3978978 27.7297759,36.1018775 27.0989037,35.9659974 L27.0989037,35.9368803 C27.5065442,35.7524715 27.8462396,35.4807152 28.1179999,35.1216033 C28.3897603,34.7624914 28.5256384,34.3500042 28.5256384,33.8841293 C28.5256384,33.4085487 28.4455674,32.9960615 28.2854229,32.6466553 C28.1252784,32.2972492 27.9044764,32.0109345 27.6230103,31.7877028 C27.3415442,31.5644711 27.0091281,31.3970498 26.6257519,31.2854339 C26.2423756,31.1738181 25.827462,31.118011 25.3809986,31.118011 C24.8665951,31.118011 24.4128591,31.2005084 24.0197772,31.3655058 C23.6266952,31.5305031 23.2991319,31.7585843 23.0370772,32.0497561 C22.7750226,32.3409279 22.5736318,32.6903288 22.4328988,33.0979694 C22.2921657,33.5056099 22.2120947,33.9569194 22.1926832,34.4519115 L23.4301572,34.4519115 C23.4301572,34.151034 23.4689796,33.8647193 23.5466254,33.592959 C23.6242712,33.3211986 23.7431646,33.0834119 23.903309,32.8795916 C24.0634535,32.6757713 24.2672708,32.5132029 24.5147668,32.3918813 C24.7622628,32.2705597 25.0510039,32.2098998 25.3809986,32.2098998 C25.9051079,32.2098998 26.341859,32.3482043 26.6912652,32.6248175 C27.0406714,32.9014308 27.2153718,33.3163444 27.2153718,33.8695708 C27.2153718,34.1413312 27.1619911,34.3839707 27.0552281,34.5974967 C26.9484651,34.8110227 26.8053078,34.9881495 26.6257519,35.1288826 C26.4461959,35.2696156 26.2375259,35.376377 25.9997356,35.44917 C25.7619453,35.5219629 25.5120266,35.5583589 25.2499719,35.5583589 L24.9879186,35.5583589 L24.8423334,35.5583589 C24.8035105,35.5583589 24.7598354,35.5535061 24.7113068,35.5438003 L24.7113068,35.5438003 Z M31.5538101,36.3590773 C31.5538101,36.1067284 31.5562365,35.827693 31.5610893,35.5219626 C31.5659422,35.2162322 31.5902062,34.9105063 31.6338819,34.604776 C31.6775577,34.2990456 31.740644,34.0005989 31.8231427,33.7094271 C31.9056413,33.4182553 32.0269611,33.1634838 32.1871056,32.9451049 C32.3472501,32.7267261 32.5486409,32.5495992 32.7912841,32.413719 C33.0339273,32.2778389 33.3299475,32.2098998 33.6793537,32.2098998 C34.0287598,32.2098998 34.3247801,32.2778389 34.5674232,32.413719 C34.8100664,32.5495992 35.0114572,32.7267261 35.1716017,32.9451049 C35.3317462,33.1634838 35.453066,33.4182553 35.5355647,33.7094271 C35.6180634,34.0005989 35.6811496,34.2990456 35.7248254,34.604776 C35.7685012,34.9105063 35.7927651,35.2162322 35.797618,35.5219626 C35.8024709,35.827693 35.8048973,36.1067284 35.8048973,36.3590773 C35.8048973,36.7473064 35.7927653,37.1816312 35.768501,37.6620647 C35.7442366,38.1424981 35.666592,38.5938077 35.5355647,39.0160068 C35.4045374,39.4382059 35.193441,39.794886 34.9022692,40.0860579 C34.6110973,40.3772297 34.2034629,40.5228134 33.6793537,40.5228134 C33.1552444,40.5228134 32.74761,40.3772297 32.4564382,40.0860579 C32.1652664,39.794886 31.95417,39.4382059 31.8231427,39.0160068 C31.6921154,38.5938077 31.6144707,38.1424981 31.5902064,37.6620647 C31.5659421,37.1816312 31.5538101,36.7473064 31.5538101,36.3590773 L31.5538101,36.3590773 Z M30.2435435,36.3736358 C30.2435435,36.7521592 30.2532491,37.1452352 30.2726605,37.5528758 C30.292072,37.9605163 30.3405999,38.3584452 30.4182457,38.7466742 C30.4958915,39.1349033 30.6075057,39.501289 30.7530916,39.8458423 C30.8986775,40.1903956 31.0976419,40.493695 31.3499908,40.7557497 C31.6023397,41.0178043 31.9201975,41.2240479 32.3035737,41.3744867 C32.68695,41.5249254 33.1455387,41.6001437 33.6793537,41.6001437 C34.2228744,41.6001437 34.6838895,41.5249254 35.0624128,41.3744867 C35.4409362,41.2240479 35.7563676,41.0178043 36.0087165,40.7557497 C36.2610654,40.493695 36.4600298,40.1903956 36.6056157,39.8458423 C36.7512016,39.501289 36.8628158,39.1349033 36.9404616,38.7466742 C37.0181074,38.3584452 37.0666354,37.9605163 37.0860468,37.5528758 C37.1054583,37.1452352 37.1151638,36.7521592 37.1151638,36.3736358 C37.1151638,35.9951125 37.1054583,35.6020364 37.0860468,35.1943959 C37.0666354,34.7867554 37.0181074,34.3888265 36.9404616,34.0005975 C36.8628158,33.6123684 36.7512016,33.2435563 36.6056157,32.8941501 C36.4600298,32.544744 36.2610654,32.2390181 36.0087165,31.9769635 C35.7563676,31.7149089 35.4385098,31.5062389 35.0551336,31.3509472 C34.6717574,31.1956556 34.2131687,31.118011 33.6793537,31.118011 C33.1455387,31.118011 32.68695,31.1956556 32.3035737,31.3509472 C31.9201975,31.5062389 31.6023397,31.7149089 31.3499908,31.9769635 C31.0976419,32.2390181 30.8986775,32.544744 30.7530916,32.8941501 C30.6075057,33.2435563 30.4958915,33.6123684 30.4182457,34.0005975 C30.3405999,34.3888265 30.292072,34.7867554 30.2726605,35.1943959 C30.2532491,35.6020364 30.2435435,35.9951125 30.2435435,36.3736358 L30.2435435,36.3736358 Z" id="30" fill="#68C258"></path>
                    </g>
                </g>
            </g>
        </g>
    </g>
</svg>