<?xml version="1.0" encoding="UTF-8" standalone="no"?>
<svg width="45px" height="41px" viewBox="0 0 45 41" version="1.1" xmlns="http://www.w3.org/2000/svg" xmlns:xlink="http://www.w3.org/1999/xlink">
    <!-- Generator: Sketch 3.8.3 (29802) - http://www.bohemiancoding.com/sketch -->
    <title>echange</title>
    <desc>Created with Sketch.</desc>
    <defs>
        <rect id="path-1" x="10.5511242" y="0.188034263" width="24.9702669" height="24.3772991"></rect>
        <mask id="mask-2" maskContentUnits="userSpaceOnUse" maskUnits="objectBoundingBox" x="0" y="0" width="24.9702669" height="24.3772991" fill="white">
            <use xlink:href="#path-1"></use>
        </mask>
        <rect id="path-3" x="8.73510479" y="0.188034263" width="28.6023057" height="6.64835429" rx="1.6"></rect>
        <mask id="mask-4" maskContentUnits="userSpaceOnUse" maskUnits="objectBoundingBox" x="0" y="0" width="28.6023057" height="6.64835429" fill="white">
            <use xlink:href="#path-3"></use>
        </mask>
    </defs>
    <g id="Produit" stroke="none" stroke-width="1" fill="none" fill-rule="evenodd">
        <g transform="translate(-387.000000, -876.000000)" id="éléments-rassurance">
            <g transform="translate(80.000000, 863.000000)">
                <g id="echange" transform="translate(307.000000, 14.000000)">
                    <g id="Group-4">
                        <g id="Group-3" transform="translate(0.000000, 14.634667)">
                            <g id="Group-2" transform="translate(6.056698, 8.590280)">
                                <path d="M36.2888446,2.352 L0.385051112,2.352" id="Path-453-Copy" stroke="#68C258" stroke-width="0.8" stroke-linecap="round"></path>
                                <path d="M38.7398711,2.57645844 L35.1542995,4.65686143 C34.9406439,4.78082763 34.7674419,4.65081748 34.7674419,4.37778544 L34.7674419,0.326210118 C34.7674419,0.0481145029 34.9437302,-0.0750413566 35.1542995,0.0471341237 L38.7398711,2.12753712 C38.9535266,2.25150332 38.9504403,2.45428296 38.7398711,2.57645844 Z" id="Triangle-7" fill="#68C258"></path>
                            </g>
                            <g id="Group-2-Copy" transform="translate(20.443302, 17.033505) scale(-1, 1) translate(-20.443302, -17.033505) translate(0.943302, 14.533505)">
                                <path d="M36.5948744,2.352 L0.350358854,2.352" id="Path-453-Copy" stroke="#68C258" stroke-width="0.8" stroke-linecap="round"></path>
                                <path d="M38.8230803,2.57645844 L35.5634698,4.65686143 C35.3692374,4.78082763 35.211781,4.65081748 35.211781,4.37778544 L35.211781,0.326210118 C35.211781,0.0481145029 35.3720431,-0.0750413566 35.5634698,0.0471341237 L38.8230803,2.12753712 C39.0173126,2.25150332 39.0145069,2.45428296 38.8230803,2.57645844 Z" id="Triangle-7" fill="#68C258"></path>
                            </g>
                            <use id="Rectangle-201" stroke="#68C258" mask="url(#mask-2)" stroke-width="1.6" fill="#E9F6E6" xlink:href="#path-1"></use>
                            <use id="Rectangle-201-Copy" stroke="#68C258" mask="url(#mask-4)" stroke-width="1.6" fill="#FFFFFF" xlink:href="#path-3"></use>
                        </g>
                        <ellipse id="Oval-244" stroke="#68C258" stroke-width="0.8" cx="23.2582197" cy="6.01066667" rx="5.93905373" ry="6.01066667"></ellipse>
                        <path d="M23.1931605,3.136 L23.1931605,5.52816746 C23.1931605,5.9740718 23.5565934,6.33554869 23.9938719,6.33554869 L25.2796169,6.33554869" id="Path-460" stroke="#68C258" stroke-width="0.8" stroke-linecap="round"></path>
                    </g>
                    <ellipse id="Oval-100" stroke="#68C258" stroke-width="0.8" cx="35.2931034" cy="3.6" rx="1.18965517" ry="1.2"></ellipse>
                    <ellipse id="Oval-100-Copy" stroke="#68C258" stroke-width="0.8" cx="10.7068966" cy="10" rx="1.18965517" ry="1.2"></ellipse>
                    <ellipse id="Oval-100-Copy-2" fill="#68C258" cx="0.793103448" cy="22.4" rx="0.793103448" ry="0.8"></ellipse>
                    <ellipse id="Oval-100-Copy-3" fill="#68C258" cx="42.8275862" cy="36" rx="0.793103448" ry="0.8"></ellipse>
                    <path d="M21.1719466,32.952 L21.1719466,24.6944088 L20.4149036,24.6944088 C20.3605516,25.004992 20.2596135,25.2612194 20.1120865,25.4630985 C19.9645594,25.6649776 19.7840356,25.8241492 19.5705096,25.9406179 C19.3569836,26.0570866 19.1182263,26.1366724 18.8542305,26.1793776 C18.5902348,26.2220828 18.3184785,26.2434351 18.0389536,26.2434351 L18.0389536,27.0354184 L20.1819674,27.0354184 L20.1819674,32.952 L21.1719466,32.952 Z M28.975312,25.7076816 L28.975312,24.8341705 L24.8989271,24.8341705 L24.1302374,29.1201981 L24.9804548,29.1667854 C25.1745693,28.933848 25.3977977,28.7455597 25.6501466,28.6019149 C25.9024955,28.4582702 26.1917218,28.3864489 26.5178343,28.3864489 C26.7973592,28.3864489 27.0516454,28.4330356 27.2807006,28.5262106 C27.5097557,28.6193856 27.7058085,28.7494404 27.8688647,28.9163789 C28.0319209,29.0833174 28.1580935,29.2813113 28.2473862,29.5103664 C28.3366788,29.7394216 28.3813245,29.9898256 28.3813245,30.2615859 C28.3813245,30.5876984 28.3347377,30.8730425 28.2415627,31.1176268 C28.1483878,31.3622111 28.0222152,31.5660283 27.8630413,31.7290845 C27.7038674,31.8921407 27.5175202,32.0144311 27.3039942,32.0959592 C27.0904682,32.1774873 26.8672398,32.2182507 26.6343024,32.2182507 C26.3858358,32.2182507 26.1587252,32.1813695 25.9529638,32.107606 C25.7472024,32.0338424 25.5686197,31.9290222 25.4172103,31.793142 C25.265801,31.6572618 25.1454518,31.4980903 25.0561591,31.3156226 C24.9668664,31.1331549 24.9144563,30.9371022 24.8989271,30.7274585 L23.9089479,30.7274585 C23.9167125,31.1001584 23.9904749,31.4340304 24.1302374,31.7290845 C24.2699998,32.0241386 24.4602292,32.2706604 24.7009312,32.4686572 C24.9416333,32.666654 25.2192129,32.8180611 25.5336785,32.922883 C25.848144,33.0277048 26.1839571,33.080115 26.5411279,33.080115 C27.0225319,33.080115 27.4437542,33.0044114 27.8048072,32.8530021 C28.1658603,32.7015927 28.4667333,32.4977755 28.7074353,32.2415443 C28.9481373,31.9853131 29.1286612,31.6922046 29.2490122,31.3622099 C29.3693632,31.0322152 29.4295378,30.6925198 29.4295378,30.3431136 C29.4295378,29.8694742 29.3596576,29.4560164 29.2198951,29.1027279 C29.0801327,28.7494395 28.8899033,28.4543898 28.6492012,28.2175701 C28.4084992,27.9807503 28.1250962,27.8041087 27.7989838,27.68764 C27.4728714,27.5711713 27.1273527,27.5129378 26.7624174,27.5129378 C26.4828924,27.5129378 26.2014306,27.5614657 25.9180233,27.658523 C25.6346161,27.7555802 25.4036233,27.9050462 25.2250379,28.1069253 L25.2017443,28.0836317 L25.6443232,25.7076816 L28.975312,25.7076816 Z" id="15" fill="#68C258"></path>
                </g>
            </g>
        </g>
    </g>
</svg>