<?xml version="1.0" encoding="UTF-8" standalone="no"?>
<svg width="45px" height="41px" viewBox="0 0 45 41" version="1.1" xmlns="http://www.w3.org/2000/svg" xmlns:xlink="http://www.w3.org/1999/xlink">
    <!-- Generator: Sketch 3.8.3 (29802) - http://www.bohemiancoding.com/sketch -->
    <title>echange</title>
    <desc>Created with Sketch.</desc>
    <defs>
        <rect id="path-1" x="10.5511242" y="0.188034263" width="24.9702669" height="24.3772991"></rect>
        <mask id="mask-2" maskContentUnits="userSpaceOnUse" maskUnits="objectBoundingBox" x="0" y="0" width="24.9702669" height="24.3772991" fill="white">
            <use xlink:href="#path-1"></use>
        </mask>
        <rect id="path-3" x="8.73510479" y="0.188034263" width="28.6023057" height="6.64835429" rx="1.6"></rect>
        <mask id="mask-4" maskContentUnits="userSpaceOnUse" maskUnits="objectBoundingBox" x="0" y="0" width="28.6023057" height="6.64835429" fill="white">
            <use xlink:href="#path-3"></use>
        </mask>
    </defs>
    <g id="Produit" stroke="none" stroke-width="1" fill="none" fill-rule="evenodd">
        <g transform="translate(-387.000000, -876.000000)" id="éléments-rassurance">
            <g transform="translate(80.000000, 863.000000)">
                <g id="echange" transform="translate(307.000000, 14.000000)">
                    <g id="Group-4">
                        <g id="Group-3" transform="translate(0.000000, 14.634667)">
                            <g id="Group-2" transform="translate(6.056698, 8.590280)">
                                <path d="M36.2888446,2.352 L0.385051112,2.352" id="Path-453-Copy" stroke="#68C258" stroke-width="0.8" stroke-linecap="round"></path>
                                <path d="M38.7398711,2.57645844 L35.1542995,4.65686143 C34.9406439,4.78082763 34.7674419,4.65081748 34.7674419,4.37778544 L34.7674419,0.326210118 C34.7674419,0.0481145029 34.9437302,-0.0750413566 35.1542995,0.0471341237 L38.7398711,2.12753712 C38.9535266,2.25150332 38.9504403,2.45428296 38.7398711,2.57645844 Z" id="Triangle-7" fill="#68C258"></path>
                            </g>
                            <g id="Group-2-Copy" transform="translate(20.443302, 17.033505) scale(-1, 1) translate(-20.443302, -17.033505) translate(0.943302, 14.533505)">
                                <path d="M36.5948744,2.352 L0.350358854,2.352" id="Path-453-Copy" stroke="#68C258" stroke-width="0.8" stroke-linecap="round"></path>
                                <path d="M38.8230803,2.57645844 L35.5634698,4.65686143 C35.3692374,4.78082763 35.211781,4.65081748 35.211781,4.37778544 L35.211781,0.326210118 C35.211781,0.0481145029 35.3720431,-0.0750413566 35.5634698,0.0471341237 L38.8230803,2.12753712 C39.0173126,2.25150332 39.0145069,2.45428296 38.8230803,2.57645844 Z" id="Triangle-7" fill="#68C258"></path>
                            </g>
                            <use id="Rectangle-201" stroke="#68C258" mask="url(#mask-2)" stroke-width="1.6" fill="#E9F6E6" xlink:href="#path-1"></use>
                            <use id="Rectangle-201-Copy" stroke="#68C258" mask="url(#mask-4)" stroke-width="1.6" fill="#FFFFFF" xlink:href="#path-3"></use>
                        </g>
                        <ellipse id="Oval-244" stroke="#68C258" stroke-width="0.8" cx="23.2582197" cy="6.01066667" rx="5.93905373" ry="6.01066667"></ellipse>
                        <path d="M23.1931605,3.136 L23.1931605,5.52816746 C23.1931605,5.9740718 23.5565934,6.33554869 23.9938719,6.33554869 L25.2796169,6.33554869" id="Path-460" stroke="#68C258" stroke-width="0.8" stroke-linecap="round"></path>
                    </g>
                    <ellipse id="Oval-100" stroke="#68C258" stroke-width="0.8" cx="35.2931034" cy="3.6" rx="1.18965517" ry="1.2"></ellipse>
                    <ellipse id="Oval-100-Copy" stroke="#68C258" stroke-width="0.8" cx="10.7068966" cy="10" rx="1.18965517" ry="1.2"></ellipse>
                    <ellipse id="Oval-100-Copy-2" fill="#68C258" cx="0.793103448" cy="22.4" rx="0.793103448" ry="0.8"></ellipse>
                    <ellipse id="Oval-100-Copy-3" fill="#68C258" cx="42.8275862" cy="36" rx="0.793103448" ry="0.8"></ellipse>
                    <text id="15" font-family=".HelveticaNeueDeskInterface-Regular, .Helvetica Neue DeskInterface" font-size="11.4604651" font-weight="normal" fill="#68C258">
                        <tspan x="17.0256807" y="32.952">15</tspan>
                    </text>
                </g>
            </g>
        </g>
    </g>
</svg>