<?xml version="1.0" encoding="UTF-8" standalone="no"?>
<svg width="1440px" height="111px" viewBox="0 0 1440 111" version="1.1" xmlns="http://www.w3.org/2000/svg" xmlns:xlink="http://www.w3.org/1999/xlink">
    <!-- Generator: Sketch 3.8.3 (29802) - http://www.bohemiancoding.com/sketch -->
    <title>help_bottom</title>
    <desc>Created with Sketch.</desc>
    <defs></defs>
    <g id="Help" stroke="none" stroke-width="1" fill="none" fill-rule="evenodd">
        <g transform="translate(0.000000, -1133.000000)" id="help_bottom">
            <g transform="translate(0.000000, 1133.000000)">
                <path d="M0,90.97 L1440,90.97 L1440,15.9468702 C1440,15.9468702 1350.997,-25.2904709 929.738,29.088358 C508.479,83.467812 0,90.97 0,90.97" id="paysage" fill="#FCFBFC" transform="translate(720.000000, 45.970017) scale(-1, -1) translate(-720.000000, -45.970017) "></path>
                <path d="M695,30 L695,44 L742,44 L742,30 L695,30 Z M695,22 L695,14 L687,14 L687,84.9941896 C687,87.2016689 688.790861,89 691,89 C693.204644,89 695,87.2065376 695,84.9941896 L695,74 L742,74 L742,84.9941896 C742,87.2016689 743.790861,89 746,89 C748.204644,89 750,87.2065376 750,84.9941896 L750,14 L742,14 L742,22 L695,22 Z M695,52 L695,66 L742,66 L742,52 L695,52 Z" id="échelle" fill="#C3E7BC"></path>
                <g id="jambes" transform="translate(702.000000, 27.000000)">
                    <path d="M4.57812499,4.14257812 C4.57812499,4.14257812 0.625000012,14.84375 0.62500001,33.8652344 C0.625000008,52.8867188 15.4042969,75.8359375 15.4042969,75.8359375" id="Path-414" stroke="#49D1E2" stroke-width="7"></path>
                    <path d="M17.2056396,2.27923466 C17.2056396,5.07300545 13.3394648,6.70910621 13.3394648,16.18202 C13.3394648,25.6549337 32.4508112,33.6692787 32.4508112,33.6692787" id="Path-414-Copy" stroke="#49D1E2" stroke-width="7" transform="translate(22.895138, 17.974257) rotate(193.000000) translate(-22.895138, -17.974257) "></path>
                    <path d="M8.91796875,71.9960938 C8.91796875,71.9960938 7.6025391,69.8017579 5.13867188,73.7333984 C2.67480465,77.665039 12.59296,82.8314209 12.59296,82.8314209 C14.0221095,83.6715113 16.1941315,83.4664908 17.4444332,82.3733844 L19.1385746,80.8922406 C20.3888198,79.7991837 20.9211274,77.6566122 20.3263336,76.1035838 L19.5708006,74.1308593 C19.5708006,74.1308593 19.189453,71.6210939 15.1806639,73.256836 C11.1718749,74.892578 12.6416016,77.6650391 12.6416016,77.6650391" id="Path-416" stroke="#D2D1D6" stroke-linecap="round" fill="#FFFFFF"></path>
                    <path d="M25.0972899,33.1644287 C23.4554491,32.7728886 21.4985352,33.6723633 21.4985352,33.6723633 C21.4985352,33.6723633 18.0996677,38.9694839 20.4650879,40.2109375 C22.830508,41.4523911 28.6173549,39.6684933 28.6173549,39.6684933 C30.2182949,39.260597 32.8505743,38.9925429 33.956543,39.0444336 L33.956543,39.0444336 C33.956543,39.0444336 34.9437259,36.2590332 31.5925293,35.9936523 C28.2413327,35.7282715 29.1442871,34.4304199 29.1442871,34.4304199 C29.1442871,34.4304199 26.7391308,33.5559689 25.0972899,33.1644287 Z" id="Path-417" stroke="#D2D1D6" stroke-linecap="round" stroke-linejoin="round" fill="#FFFFFF"></path>
                </g>
                <path d="M0,90.97 L1440,90.97 L1440,15.9468702 C1440,15.9468702 1350.997,-25.2904709 929.738,29.088358 C508.479,83.467812 0,90.97 0,90.97" id="paysage" fill="#F8F8F9" transform="translate(720.000000, 45.970017) scale(1, -1) translate(-720.000000, -45.970017) "></path>
            </g>
        </g>
    </g>
</svg>