<?xml version="1.0" encoding="UTF-8" standalone="no"?>
<svg width="1440px" height="196px" viewBox="0 0 1440 196" version="1.1" xmlns="http://www.w3.org/2000/svg" xmlns:xlink="http://www.w3.org/1999/xlink">
    <!-- Generator: Sketch 3.8.3 (29802) - http://www.bohemiancoding.com/sketch -->
    <title>help_top</title>
    <desc>Created with Sketch.</desc>
    <defs>
        <path d="M16.6873313,117 L23.6873313,117 L25.0102226,126.260239 C25.3841794,128.877937 23.5403076,131 20.8945704,131 L19.4800923,131 C16.8331235,131 14.9910883,128.873701 15.3644401,126.260239 L16.6873313,117 Z" id="path-1"></path>
        <mask id="mask-2" maskContentUnits="userSpaceOnUse" maskUnits="objectBoundingBox" x="0" y="0" width="9.7420275" height="14" fill="white">
            <use xlink:href="#path-1"></use>
        </mask>
        <circle id="path-3" cx="14.5" cy="23.5" r="2.5"></circle>
    </defs>
    <g id="Help" stroke="none" stroke-width="1" fill="none" fill-rule="evenodd">
        <g transform="translate(0.000000, -548.000000)" id="help_top">
            <g transform="translate(0.000000, 548.000000)">
                <path d="M0,195.97 L1440,195.97 L1440,120.94687 C1440,120.94687 1350.997,79.7095291 929.738,134.088358 C508.479,188.467812 0,195.97 0,195.97" id="paysage" fill="#FCFBFC"></path>
                <path d="M695,103 L695,117 L742,117 L742,103 L695,103 Z M695,95 L695,87 L687,87 L687,157.99419 C687,160.201669 688.790861,162 691,162 C693.204644,162 695,160.206538 695,157.99419 L695,147 L742,147 L742,157.99419 C742,160.201669 743.790861,162 746,162 C748.204644,162 750,160.206538 750,157.99419 L750,87 L742,87 L742,95 L695,95 Z M695,125 L695,139 L742,139 L742,125 L695,125 Z" id="échelle" fill="#C3E7BC" transform="translate(718.500000, 124.500000) scale(1, -1) translate(-718.500000, -124.500000) "></path>
                <g id="nuages" transform="translate(212.000000, 14.000000)" fill="#1C1833" fill-opacity="0.07">
                    <rect id="nuage" x="35" y="18" width="39" height="3" rx="1.5"></rect>
                    <rect id="nuage" x="839" y="59" width="89.9521484" height="3" rx="1.5"></rect>
                    <rect id="nuage" x="1083" y="21" width="39" height="3" rx="1.5"></rect>
                    <rect id="nuage" x="0" y="0" width="39" height="3" rx="1.5"></rect>
                    <rect id="nuage" x="804" y="41" width="39" height="3" rx="1.5"></rect>
                </g>
                <g id="arbres" transform="translate(126.000000, 0.000000)">
                    <g id="arbre">
                        <path d="M21,98 L24,98 L24,109 L0,109 L0,98 L3,98 L0,98 L1.71031952,100.850533 C2.42259038,102.037651 3.57843018,102.03595 4.28968048,100.850533 L6,98 L3,98 L21,98 L24,98 L22.2896805,100.850533 C21.5784302,102.03595 20.4225904,102.037651 19.7103195,100.850533 L18,98 L21,98 Z M7.71031952,100.850533 C8.42259038,102.037651 9.57843018,102.03595 10.2896805,100.850533 L12,98 L6,98 L7.71031952,100.850533 Z M13.7103195,100.850533 C14.4225904,102.037651 15.5784302,102.03595 16.2896805,100.850533 L18,98 L12,98 L13.7103195,100.850533 Z" id="Combined-Shape" fill="#68C258"></path>
                        <path d="M53,98 L56,98 L56,109 L32,109 L32,98 L35,98 L32,98 L33.7103195,100.850533 C34.4225904,102.037651 35.5784302,102.03595 36.2896805,100.850533 L38,98 L35,98 L53,98 L56,98 L54.2896805,100.850533 C53.5784302,102.03595 52.4225904,102.037651 51.7103195,100.850533 L50,98 L53,98 Z M39.7103195,100.850533 C40.4225904,102.037651 41.5784302,102.03595 42.2896805,100.850533 L44,98 L38,98 L39.7103195,100.850533 Z M45.7103195,100.850533 C46.4225904,102.037651 47.5784302,102.03595 48.2896805,100.850533 L50,98 L44,98 L45.7103195,100.850533 Z" id="Combined-Shape-Copy-2" fill="#68C258"></path>
                        <g id="tree">
                            <rect id="Rectangle-327" fill="#1C1833" x="27" y="18" width="2" height="88"></rect>
                            <path d="M40.2781746,61.7781746 C40.2781746,64.3975496 39.1354246,67.0356746 36.7921746,69.2781746 C34.4489246,67.0356746 33.2781746,64.3975496 33.2781746,61.7781746 C33.2781746,59.1587996 34.4489246,56.5206746 36.7921746,54.2781746 C39.1354246,56.5206746 40.2781746,59.1587996 40.2781746,61.7781746" id="Page-1" fill="#68C258" transform="translate(36.778175, 61.778175) rotate(-315.000000) translate(-36.778175, -61.778175) "></path>
                            <path d="M40.2781746,61.7781746 C40.2781746,64.3975496 39.1354246,67.0356746 36.7921746,69.2781746 C34.4489246,67.0356746 33.2781746,64.3975496 33.2781746,61.7781746 C33.2781746,59.1587996 34.4489246,56.5206746 36.7921746,54.2781746 C39.1354246,56.5206746 40.2781746,59.1587996 40.2781746,61.7781746" id="Page-1-Copy-6" fill="#2DAE7D" transform="translate(36.778175, 61.778175) rotate(-315.000000) translate(-36.778175, -61.778175) "></path>
                            <path d="M40.2781746,50.7781746 C40.2781746,53.3975496 39.1354246,56.0356746 36.7921746,58.2781746 C34.4489246,56.0356746 33.2781746,53.3975496 33.2781746,50.7781746 C33.2781746,48.1587996 34.4489246,45.5206746 36.7921746,43.2781746 C39.1354246,45.5206746 40.2781746,48.1587996 40.2781746,50.7781746" id="Page-1-Copy-7" fill="#2DAE7D" transform="translate(36.778175, 50.778175) rotate(-315.000000) translate(-36.778175, -50.778175) "></path>
                            <path d="M40.2781746,39.7781746 C40.2781746,42.3975496 39.1354246,45.0356746 36.7921746,47.2781746 C34.4489246,45.0356746 33.2781746,42.3975496 33.2781746,39.7781746 C33.2781746,37.1587996 34.4489246,34.5206746 36.7921746,32.2781746 C39.1354246,34.5206746 40.2781746,37.1587996 40.2781746,39.7781746" id="Page-1-Copy-8" fill="#2DAE7D" transform="translate(36.778175, 39.778175) rotate(-315.000000) translate(-36.778175, -39.778175) "></path>
                            <path d="M40.2781746,28.7781746 C40.2781746,31.3975496 39.1354246,34.0356746 36.7921746,36.2781746 C34.4489246,34.0356746 33.2781746,31.3975496 33.2781746,28.7781746 C33.2781746,26.1587996 34.4489246,23.5206746 36.7921746,21.2781746 C39.1354246,23.5206746 40.2781746,26.1587996 40.2781746,28.7781746" id="Page-1-Copy-9" fill="#2DAE7D" transform="translate(36.778175, 28.778175) rotate(-315.000000) translate(-36.778175, -28.778175) "></path>
                            <path d="M40.2781746,17.7781746 C40.2781746,20.3975496 39.1354246,23.0356746 36.7921746,25.2781746 C34.4489246,23.0356746 33.2781746,20.3975496 33.2781746,17.7781746 C33.2781746,15.1587996 34.4489246,12.5206746 36.7921746,10.2781746 C39.1354246,12.5206746 40.2781746,15.1587996 40.2781746,17.7781746" id="Page-1-Copy-10" fill="#2DAE7D" transform="translate(36.778175, 17.778175) rotate(-315.000000) translate(-36.778175, -17.778175) "></path>
                            <path d="M31.2781746,7.77817459 C31.2781746,10.3975496 30.1354246,13.0356746 27.7921746,15.2781746 C25.4489246,13.0356746 24.2781746,10.3975496 24.2781746,7.77817459 C24.2781746,5.15879959 25.4489246,2.52067459 27.7921746,0.278174593 C30.1354246,2.52067459 31.2781746,5.15879959 31.2781746,7.77817459" id="Page-1-Copy-26" fill="#2DAE7D"></path>
                            <path d="M22.2781746,61.7781746 C22.2781746,64.3975496 21.1354246,67.0356746 18.7921746,69.2781746 C16.4489246,67.0356746 15.2781746,64.3975496 15.2781746,61.7781746 C15.2781746,59.1587996 16.4489246,56.5206746 18.7921746,54.2781746 C21.1354246,56.5206746 22.2781746,59.1587996 22.2781746,61.7781746" id="Page-1-Copy-16" fill="#68C258" transform="translate(18.778175, 61.778175) scale(-1, 1) rotate(-315.000000) translate(-18.778175, -61.778175) "></path>
                            <path d="M22.2781746,61.7781746 C22.2781746,64.3975496 21.1354246,67.0356746 18.7921746,69.2781746 C16.4489246,67.0356746 15.2781746,64.3975496 15.2781746,61.7781746 C15.2781746,59.1587996 16.4489246,56.5206746 18.7921746,54.2781746 C21.1354246,56.5206746 22.2781746,59.1587996 22.2781746,61.7781746" id="Page-1-Copy-15" fill="#2DAE7D" transform="translate(18.778175, 61.778175) scale(-1, 1) rotate(-315.000000) translate(-18.778175, -61.778175) "></path>
                            <path d="M11.2781746,48.7781746 C11.2781746,51.3975496 10.1354246,54.0356746 7.79217459,56.2781746 C5.44892459,54.0356746 4.27817459,51.3975496 4.27817459,48.7781746 C4.27817459,46.1587996 5.44892459,43.5206746 7.79217459,41.2781746 C10.1354246,43.5206746 11.2781746,46.1587996 11.2781746,48.7781746" id="Page-1-Copy-17" fill="#2DAE7D" transform="translate(7.778175, 48.778175) scale(-1, 1) rotate(-315.000000) translate(-7.778175, -48.778175) "></path>
                            <path d="M11.2781746,37.7781746 C11.2781746,40.3975496 10.1354246,43.0356746 7.79217459,45.2781746 C5.44892459,43.0356746 4.27817459,40.3975496 4.27817459,37.7781746 C4.27817459,35.1587996 5.44892459,32.5206746 7.79217459,30.2781746 C10.1354246,32.5206746 11.2781746,35.1587996 11.2781746,37.7781746" id="Page-1-Copy-18" fill="#2DAE7D" transform="translate(7.778175, 37.778175) scale(-1, 1) rotate(-315.000000) translate(-7.778175, -37.778175) "></path>
                            <path d="M11.2781746,26.7781746 C11.2781746,29.3975496 10.1354246,32.0356746 7.79217459,34.2781746 C5.44892459,32.0356746 4.27817459,29.3975496 4.27817459,26.7781746 C4.27817459,24.1587996 5.44892459,21.5206746 7.79217459,19.2781746 C10.1354246,21.5206746 11.2781746,24.1587996 11.2781746,26.7781746" id="Page-1-Copy-19" fill="#2DAE7D" transform="translate(7.778175, 26.778175) scale(-1, 1) rotate(-315.000000) translate(-7.778175, -26.778175) "></path>
                            <path d="M11.2781746,48.7781746 C11.2781746,51.3975496 10.1354246,54.0356746 7.79217459,56.2781746 C5.44892459,54.0356746 4.27817459,51.3975496 4.27817459,48.7781746 C4.27817459,46.1587996 5.44892459,43.5206746 7.79217459,41.2781746 C10.1354246,43.5206746 11.2781746,46.1587996 11.2781746,48.7781746" id="Page-1-Copy-22" fill="#2DAE7D" transform="translate(7.778175, 48.778175) scale(-1, 1) rotate(-315.000000) translate(-7.778175, -48.778175) "></path>
                            <path d="M11.2781746,37.7781746 C11.2781746,40.3975496 10.1354246,43.0356746 7.79217459,45.2781746 C5.44892459,43.0356746 4.27817459,40.3975496 4.27817459,37.7781746 C4.27817459,35.1587996 5.44892459,32.5206746 7.79217459,30.2781746 C10.1354246,32.5206746 11.2781746,35.1587996 11.2781746,37.7781746" id="Page-1-Copy-21" fill="#2DAE7D" transform="translate(7.778175, 37.778175) scale(-1, 1) rotate(-315.000000) translate(-7.778175, -37.778175) "></path>
                            <path d="M11.2781746,26.7781746 C11.2781746,29.3975496 10.1354246,32.0356746 7.79217459,34.2781746 C5.44892459,32.0356746 4.27817459,29.3975496 4.27817459,26.7781746 C4.27817459,24.1587996 5.44892459,21.5206746 7.79217459,19.2781746 C10.1354246,21.5206746 11.2781746,24.1587996 11.2781746,26.7781746" id="Page-1-Copy-20" fill="#2DAE7D" transform="translate(7.778175, 26.778175) scale(-1, 1) rotate(-315.000000) translate(-7.778175, -26.778175) "></path>
                            <path d="M51.2781746,48.7781746 C51.2781746,51.3975496 50.1354246,54.0356746 47.7921746,56.2781746 C45.4489246,54.0356746 44.2781746,51.3975496 44.2781746,48.7781746 C44.2781746,46.1587996 45.4489246,43.5206746 47.7921746,41.2781746 C50.1354246,43.5206746 51.2781746,46.1587996 51.2781746,48.7781746" id="Page-1-Copy-25" fill="#2DAE7D" transform="translate(47.778175, 48.778175) rotate(-315.000000) translate(-47.778175, -48.778175) "></path>
                            <path d="M51.2781746,37.7781746 C51.2781746,40.3975496 50.1354246,43.0356746 47.7921746,45.2781746 C45.4489246,43.0356746 44.2781746,40.3975496 44.2781746,37.7781746 C44.2781746,35.1587996 45.4489246,32.5206746 47.7921746,30.2781746 C50.1354246,32.5206746 51.2781746,35.1587996 51.2781746,37.7781746" id="Page-1-Copy-24" fill="#2DAE7D" transform="translate(47.778175, 37.778175) rotate(-315.000000) translate(-47.778175, -37.778175) "></path>
                            <path d="M51.2781746,26.7781746 C51.2781746,29.3975496 50.1354246,32.0356746 47.7921746,34.2781746 C45.4489246,32.0356746 44.2781746,29.3975496 44.2781746,26.7781746 C44.2781746,24.1587996 45.4489246,21.5206746 47.7921746,19.2781746 C50.1354246,21.5206746 51.2781746,24.1587996 51.2781746,26.7781746" id="Page-1-Copy-23" fill="#2DAE7D" transform="translate(47.778175, 26.778175) rotate(-315.000000) translate(-47.778175, -26.778175) "></path>
                            <path d="M22.2781746,50.7781746 C22.2781746,53.3975496 21.1354246,56.0356746 18.7921746,58.2781746 C16.4489246,56.0356746 15.2781746,53.3975496 15.2781746,50.7781746 C15.2781746,48.1587996 16.4489246,45.5206746 18.7921746,43.2781746 C21.1354246,45.5206746 22.2781746,48.1587996 22.2781746,50.7781746" id="Page-1-Copy-14" fill="#2DAE7D" transform="translate(18.778175, 50.778175) scale(-1, 1) rotate(-315.000000) translate(-18.778175, -50.778175) "></path>
                            <path d="M22.2781746,39.7781746 C22.2781746,42.3975496 21.1354246,45.0356746 18.7921746,47.2781746 C16.4489246,45.0356746 15.2781746,42.3975496 15.2781746,39.7781746 C15.2781746,37.1587996 16.4489246,34.5206746 18.7921746,32.2781746 C21.1354246,34.5206746 22.2781746,37.1587996 22.2781746,39.7781746" id="Page-1-Copy-13" fill="#2DAE7D" transform="translate(18.778175, 39.778175) scale(-1, 1) rotate(-315.000000) translate(-18.778175, -39.778175) "></path>
                            <path d="M22.2781746,28.7781746 C22.2781746,31.3975496 21.1354246,34.0356746 18.7921746,36.2781746 C16.4489246,34.0356746 15.2781746,31.3975496 15.2781746,28.7781746 C15.2781746,26.1587996 16.4489246,23.5206746 18.7921746,21.2781746 C21.1354246,23.5206746 22.2781746,26.1587996 22.2781746,28.7781746" id="Page-1-Copy-12" fill="#2DAE7D" transform="translate(18.778175, 28.778175) scale(-1, 1) rotate(-315.000000) translate(-18.778175, -28.778175) "></path>
                            <path d="M22.2781746,17.7781746 C22.2781746,20.3975496 21.1354246,23.0356746 18.7921746,25.2781746 C16.4489246,23.0356746 15.2781746,20.3975496 15.2781746,17.7781746 C15.2781746,15.1587996 16.4489246,12.5206746 18.7921746,10.2781746 C21.1354246,12.5206746 22.2781746,15.1587996 22.2781746,17.7781746" id="Page-1-Copy-11" fill="#2DAE7D" transform="translate(18.778175, 17.778175) scale(-1, 1) rotate(-315.000000) translate(-18.778175, -17.778175) "></path>
                        </g>
                    </g>
                    <g id="arbre" transform="translate(1072.000000, 82.000000)">
                        <path d="M21,98 L24,98 L24,109 L0,109 L0,98 L3,98 L0,98 L1.71031952,100.850533 C2.42259038,102.037651 3.57843018,102.03595 4.28968048,100.850533 L6,98 L3,98 L21,98 L24,98 L22.2896805,100.850533 C21.5784302,102.03595 20.4225904,102.037651 19.7103195,100.850533 L18,98 L21,98 Z M7.71031952,100.850533 C8.42259038,102.037651 9.57843018,102.03595 10.2896805,100.850533 L12,98 L6,98 L7.71031952,100.850533 Z M13.7103195,100.850533 C14.4225904,102.037651 15.5784302,102.03595 16.2896805,100.850533 L18,98 L12,98 L13.7103195,100.850533 Z" id="Combined-Shape" fill="#68C258"></path>
                        <path d="M53,98 L56,98 L56,109 L32,109 L32,98 L35,98 L32,98 L33.7103195,100.850533 C34.4225904,102.037651 35.5784302,102.03595 36.2896805,100.850533 L38,98 L35,98 L53,98 L56,98 L54.2896805,100.850533 C53.5784302,102.03595 52.4225904,102.037651 51.7103195,100.850533 L50,98 L53,98 Z M39.7103195,100.850533 C40.4225904,102.037651 41.5784302,102.03595 42.2896805,100.850533 L44,98 L38,98 L39.7103195,100.850533 Z M45.7103195,100.850533 C46.4225904,102.037651 47.5784302,102.03595 48.2896805,100.850533 L50,98 L44,98 L45.7103195,100.850533 Z" id="Combined-Shape-Copy-2" fill="#68C258"></path>
                        <g id="tree">
                            <rect id="Rectangle-327" fill="#1C1833" x="27" y="18" width="2" height="88"></rect>
                            <path d="M40.2781746,61.7781746 C40.2781746,64.3975496 39.1354246,67.0356746 36.7921746,69.2781746 C34.4489246,67.0356746 33.2781746,64.3975496 33.2781746,61.7781746 C33.2781746,59.1587996 34.4489246,56.5206746 36.7921746,54.2781746 C39.1354246,56.5206746 40.2781746,59.1587996 40.2781746,61.7781746" id="Page-1" fill="#68C258" transform="translate(36.778175, 61.778175) rotate(-315.000000) translate(-36.778175, -61.778175) "></path>
                            <path d="M40.2781746,61.7781746 C40.2781746,64.3975496 39.1354246,67.0356746 36.7921746,69.2781746 C34.4489246,67.0356746 33.2781746,64.3975496 33.2781746,61.7781746 C33.2781746,59.1587996 34.4489246,56.5206746 36.7921746,54.2781746 C39.1354246,56.5206746 40.2781746,59.1587996 40.2781746,61.7781746" id="Page-1-Copy-6" fill="#2DAE7D" transform="translate(36.778175, 61.778175) rotate(-315.000000) translate(-36.778175, -61.778175) "></path>
                            <path d="M40.2781746,50.7781746 C40.2781746,53.3975496 39.1354246,56.0356746 36.7921746,58.2781746 C34.4489246,56.0356746 33.2781746,53.3975496 33.2781746,50.7781746 C33.2781746,48.1587996 34.4489246,45.5206746 36.7921746,43.2781746 C39.1354246,45.5206746 40.2781746,48.1587996 40.2781746,50.7781746" id="Page-1-Copy-7" fill="#2DAE7D" transform="translate(36.778175, 50.778175) rotate(-315.000000) translate(-36.778175, -50.778175) "></path>
                            <path d="M40.2781746,39.7781746 C40.2781746,42.3975496 39.1354246,45.0356746 36.7921746,47.2781746 C34.4489246,45.0356746 33.2781746,42.3975496 33.2781746,39.7781746 C33.2781746,37.1587996 34.4489246,34.5206746 36.7921746,32.2781746 C39.1354246,34.5206746 40.2781746,37.1587996 40.2781746,39.7781746" id="Page-1-Copy-8" fill="#2DAE7D" transform="translate(36.778175, 39.778175) rotate(-315.000000) translate(-36.778175, -39.778175) "></path>
                            <path d="M40.2781746,28.7781746 C40.2781746,31.3975496 39.1354246,34.0356746 36.7921746,36.2781746 C34.4489246,34.0356746 33.2781746,31.3975496 33.2781746,28.7781746 C33.2781746,26.1587996 34.4489246,23.5206746 36.7921746,21.2781746 C39.1354246,23.5206746 40.2781746,26.1587996 40.2781746,28.7781746" id="Page-1-Copy-9" fill="#2DAE7D" transform="translate(36.778175, 28.778175) rotate(-315.000000) translate(-36.778175, -28.778175) "></path>
                            <path d="M40.2781746,17.7781746 C40.2781746,20.3975496 39.1354246,23.0356746 36.7921746,25.2781746 C34.4489246,23.0356746 33.2781746,20.3975496 33.2781746,17.7781746 C33.2781746,15.1587996 34.4489246,12.5206746 36.7921746,10.2781746 C39.1354246,12.5206746 40.2781746,15.1587996 40.2781746,17.7781746" id="Page-1-Copy-10" fill="#2DAE7D" transform="translate(36.778175, 17.778175) rotate(-315.000000) translate(-36.778175, -17.778175) "></path>
                            <path d="M31.2781746,7.77817459 C31.2781746,10.3975496 30.1354246,13.0356746 27.7921746,15.2781746 C25.4489246,13.0356746 24.2781746,10.3975496 24.2781746,7.77817459 C24.2781746,5.15879959 25.4489246,2.52067459 27.7921746,0.278174593 C30.1354246,2.52067459 31.2781746,5.15879959 31.2781746,7.77817459" id="Page-1-Copy-26" fill="#2DAE7D"></path>
                            <path d="M22.2781746,61.7781746 C22.2781746,64.3975496 21.1354246,67.0356746 18.7921746,69.2781746 C16.4489246,67.0356746 15.2781746,64.3975496 15.2781746,61.7781746 C15.2781746,59.1587996 16.4489246,56.5206746 18.7921746,54.2781746 C21.1354246,56.5206746 22.2781746,59.1587996 22.2781746,61.7781746" id="Page-1-Copy-16" fill="#68C258" transform="translate(18.778175, 61.778175) scale(-1, 1) rotate(-315.000000) translate(-18.778175, -61.778175) "></path>
                            <path d="M22.2781746,61.7781746 C22.2781746,64.3975496 21.1354246,67.0356746 18.7921746,69.2781746 C16.4489246,67.0356746 15.2781746,64.3975496 15.2781746,61.7781746 C15.2781746,59.1587996 16.4489246,56.5206746 18.7921746,54.2781746 C21.1354246,56.5206746 22.2781746,59.1587996 22.2781746,61.7781746" id="Page-1-Copy-15" fill="#2DAE7D" transform="translate(18.778175, 61.778175) scale(-1, 1) rotate(-315.000000) translate(-18.778175, -61.778175) "></path>
                            <path d="M11.2781746,48.7781746 C11.2781746,51.3975496 10.1354246,54.0356746 7.79217459,56.2781746 C5.44892459,54.0356746 4.27817459,51.3975496 4.27817459,48.7781746 C4.27817459,46.1587996 5.44892459,43.5206746 7.79217459,41.2781746 C10.1354246,43.5206746 11.2781746,46.1587996 11.2781746,48.7781746" id="Page-1-Copy-17" fill="#2DAE7D" transform="translate(7.778175, 48.778175) scale(-1, 1) rotate(-315.000000) translate(-7.778175, -48.778175) "></path>
                            <path d="M11.2781746,37.7781746 C11.2781746,40.3975496 10.1354246,43.0356746 7.79217459,45.2781746 C5.44892459,43.0356746 4.27817459,40.3975496 4.27817459,37.7781746 C4.27817459,35.1587996 5.44892459,32.5206746 7.79217459,30.2781746 C10.1354246,32.5206746 11.2781746,35.1587996 11.2781746,37.7781746" id="Page-1-Copy-18" fill="#2DAE7D" transform="translate(7.778175, 37.778175) scale(-1, 1) rotate(-315.000000) translate(-7.778175, -37.778175) "></path>
                            <path d="M11.2781746,26.7781746 C11.2781746,29.3975496 10.1354246,32.0356746 7.79217459,34.2781746 C5.44892459,32.0356746 4.27817459,29.3975496 4.27817459,26.7781746 C4.27817459,24.1587996 5.44892459,21.5206746 7.79217459,19.2781746 C10.1354246,21.5206746 11.2781746,24.1587996 11.2781746,26.7781746" id="Page-1-Copy-19" fill="#2DAE7D" transform="translate(7.778175, 26.778175) scale(-1, 1) rotate(-315.000000) translate(-7.778175, -26.778175) "></path>
                            <path d="M11.2781746,48.7781746 C11.2781746,51.3975496 10.1354246,54.0356746 7.79217459,56.2781746 C5.44892459,54.0356746 4.27817459,51.3975496 4.27817459,48.7781746 C4.27817459,46.1587996 5.44892459,43.5206746 7.79217459,41.2781746 C10.1354246,43.5206746 11.2781746,46.1587996 11.2781746,48.7781746" id="Page-1-Copy-22" fill="#2DAE7D" transform="translate(7.778175, 48.778175) scale(-1, 1) rotate(-315.000000) translate(-7.778175, -48.778175) "></path>
                            <path d="M11.2781746,37.7781746 C11.2781746,40.3975496 10.1354246,43.0356746 7.79217459,45.2781746 C5.44892459,43.0356746 4.27817459,40.3975496 4.27817459,37.7781746 C4.27817459,35.1587996 5.44892459,32.5206746 7.79217459,30.2781746 C10.1354246,32.5206746 11.2781746,35.1587996 11.2781746,37.7781746" id="Page-1-Copy-21" fill="#2DAE7D" transform="translate(7.778175, 37.778175) scale(-1, 1) rotate(-315.000000) translate(-7.778175, -37.778175) "></path>
                            <path d="M11.2781746,26.7781746 C11.2781746,29.3975496 10.1354246,32.0356746 7.79217459,34.2781746 C5.44892459,32.0356746 4.27817459,29.3975496 4.27817459,26.7781746 C4.27817459,24.1587996 5.44892459,21.5206746 7.79217459,19.2781746 C10.1354246,21.5206746 11.2781746,24.1587996 11.2781746,26.7781746" id="Page-1-Copy-20" fill="#2DAE7D" transform="translate(7.778175, 26.778175) scale(-1, 1) rotate(-315.000000) translate(-7.778175, -26.778175) "></path>
                            <path d="M51.2781746,48.7781746 C51.2781746,51.3975496 50.1354246,54.0356746 47.7921746,56.2781746 C45.4489246,54.0356746 44.2781746,51.3975496 44.2781746,48.7781746 C44.2781746,46.1587996 45.4489246,43.5206746 47.7921746,41.2781746 C50.1354246,43.5206746 51.2781746,46.1587996 51.2781746,48.7781746" id="Page-1-Copy-25" fill="#2DAE7D" transform="translate(47.778175, 48.778175) rotate(-315.000000) translate(-47.778175, -48.778175) "></path>
                            <path d="M51.2781746,37.7781746 C51.2781746,40.3975496 50.1354246,43.0356746 47.7921746,45.2781746 C45.4489246,43.0356746 44.2781746,40.3975496 44.2781746,37.7781746 C44.2781746,35.1587996 45.4489246,32.5206746 47.7921746,30.2781746 C50.1354246,32.5206746 51.2781746,35.1587996 51.2781746,37.7781746" id="Page-1-Copy-24" fill="#2DAE7D" transform="translate(47.778175, 37.778175) rotate(-315.000000) translate(-47.778175, -37.778175) "></path>
                            <path d="M51.2781746,26.7781746 C51.2781746,29.3975496 50.1354246,32.0356746 47.7921746,34.2781746 C45.4489246,32.0356746 44.2781746,29.3975496 44.2781746,26.7781746 C44.2781746,24.1587996 45.4489246,21.5206746 47.7921746,19.2781746 C50.1354246,21.5206746 51.2781746,24.1587996 51.2781746,26.7781746" id="Page-1-Copy-23" fill="#2DAE7D" transform="translate(47.778175, 26.778175) rotate(-315.000000) translate(-47.778175, -26.778175) "></path>
                            <path d="M22.2781746,50.7781746 C22.2781746,53.3975496 21.1354246,56.0356746 18.7921746,58.2781746 C16.4489246,56.0356746 15.2781746,53.3975496 15.2781746,50.7781746 C15.2781746,48.1587996 16.4489246,45.5206746 18.7921746,43.2781746 C21.1354246,45.5206746 22.2781746,48.1587996 22.2781746,50.7781746" id="Page-1-Copy-14" fill="#2DAE7D" transform="translate(18.778175, 50.778175) scale(-1, 1) rotate(-315.000000) translate(-18.778175, -50.778175) "></path>
                            <path d="M22.2781746,39.7781746 C22.2781746,42.3975496 21.1354246,45.0356746 18.7921746,47.2781746 C16.4489246,45.0356746 15.2781746,42.3975496 15.2781746,39.7781746 C15.2781746,37.1587996 16.4489246,34.5206746 18.7921746,32.2781746 C21.1354246,34.5206746 22.2781746,37.1587996 22.2781746,39.7781746" id="Page-1-Copy-13" fill="#2DAE7D" transform="translate(18.778175, 39.778175) scale(-1, 1) rotate(-315.000000) translate(-18.778175, -39.778175) "></path>
                            <path d="M22.2781746,28.7781746 C22.2781746,31.3975496 21.1354246,34.0356746 18.7921746,36.2781746 C16.4489246,34.0356746 15.2781746,31.3975496 15.2781746,28.7781746 C15.2781746,26.1587996 16.4489246,23.5206746 18.7921746,21.2781746 C21.1354246,23.5206746 22.2781746,26.1587996 22.2781746,28.7781746" id="Page-1-Copy-12" fill="#2DAE7D" transform="translate(18.778175, 28.778175) scale(-1, 1) rotate(-315.000000) translate(-18.778175, -28.778175) "></path>
                            <path d="M22.2781746,17.7781746 C22.2781746,20.3975496 21.1354246,23.0356746 18.7921746,25.2781746 C16.4489246,23.0356746 15.2781746,20.3975496 15.2781746,17.7781746 C15.2781746,15.1587996 16.4489246,12.5206746 18.7921746,10.2781746 C21.1354246,12.5206746 22.2781746,15.1587996 22.2781746,17.7781746" id="Page-1-Copy-11" fill="#2DAE7D" transform="translate(18.778175, 17.778175) scale(-1, 1) rotate(-315.000000) translate(-18.778175, -17.778175) "></path>
                        </g>
                    </g>
                    <g id="arbre" transform="translate(870.000000, 106.000000)">
                        <rect id="Rectangle-327" fill="#1C1833" x="11.125" y="6.7706422" width="0.75" height="33.1009174"></rect>
                        <path d="M16.1043155,23.237662 C16.1043155,24.2229315 15.6757842,25.2152537 14.7970655,26.0587629 C13.9183467,25.2152537 13.4793155,24.2229315 13.4793155,23.237662 C13.4793155,22.2523925 13.9183467,21.2600703 14.7970655,20.4165611 C15.6757842,21.2600703 16.1043155,22.2523925 16.1043155,23.237662" id="Page-1" fill="#68C258" transform="translate(14.791815, 23.237662) rotate(-315.000000) translate(-14.791815, -23.237662) "></path>
                        <path d="M16.1043155,23.237662 C16.1043155,24.2229315 15.6757842,25.2152537 14.7970655,26.0587629 C13.9183467,25.2152537 13.4793155,24.2229315 13.4793155,23.237662 C13.4793155,22.2523925 13.9183467,21.2600703 14.7970655,20.4165611 C15.6757842,21.2600703 16.1043155,22.2523925 16.1043155,23.237662" id="Page-1-Copy-6" fill="#2DAE7D" transform="translate(14.791815, 23.237662) rotate(-315.000000) translate(-14.791815, -23.237662) "></path>
                        <path d="M16.1043155,19.1000473 C16.1043155,20.0853168 15.6757842,21.0776391 14.7970655,21.9211482 C13.9183467,21.0776391 13.4793155,20.0853168 13.4793155,19.1000473 C13.4793155,18.1147778 13.9183467,17.1224556 14.7970655,16.2789464 C15.6757842,17.1224556 16.1043155,18.1147778 16.1043155,19.1000473" id="Page-1-Copy-7" fill="#2DAE7D" transform="translate(14.791815, 19.100047) rotate(-315.000000) translate(-14.791815, -19.100047) "></path>
                        <path d="M16.1043155,14.9624326 C16.1043155,15.9477021 15.6757842,16.9400244 14.7970655,17.7835336 C13.9183467,16.9400244 13.4793155,15.9477021 13.4793155,14.9624326 C13.4793155,13.9771631 13.9183467,12.9848409 14.7970655,12.1413317 C15.6757842,12.9848409 16.1043155,13.9771631 16.1043155,14.9624326" id="Page-1-Copy-8" fill="#2DAE7D" transform="translate(14.791815, 14.962433) rotate(-315.000000) translate(-14.791815, -14.962433) "></path>
                        <path d="M16.1043155,10.824818 C16.1043155,11.8100875 15.6757842,12.8024097 14.7970655,13.6459189 C13.9183467,12.8024097 13.4793155,11.8100875 13.4793155,10.824818 C13.4793155,9.83954847 13.9183467,8.84722622 14.7970655,8.00371705 C15.6757842,8.84722622 16.1043155,9.83954847 16.1043155,10.824818" id="Page-1-Copy-9" fill="#2DAE7D" transform="translate(14.791815, 10.824818) rotate(-315.000000) translate(-14.791815, -10.824818) "></path>
                        <path d="M16.1043155,6.68720329 C16.1043155,7.67247278 15.6757842,8.66479503 14.7970655,9.5083042 C13.9183467,8.66479503 13.4793155,7.67247278 13.4793155,6.68720329 C13.4793155,5.70193379 13.9183467,4.70961154 14.7970655,3.86610237 C15.6757842,4.70961154 16.1043155,5.70193379 16.1043155,6.68720329" id="Page-1-Copy-10" fill="#2DAE7D" transform="translate(14.791815, 6.687203) rotate(-315.000000) translate(-14.791815, -6.687203) "></path>
                        <path d="M12.7293155,2.9257354 C12.7293155,3.91100489 12.3007842,4.90332714 11.4220655,5.74683631 C10.5433467,4.90332714 10.1043155,3.91100489 10.1043155,2.9257354 C10.1043155,1.9404659 10.5433467,0.948143654 11.4220655,0.10463448 C12.3007842,0.948143654 12.7293155,1.9404659 12.7293155,2.9257354" id="Page-1-Copy-26" fill="#2DAE7D"></path>
                        <path d="M9.35431547,23.237662 C9.35431547,24.2229315 8.92578422,25.2152537 8.04706547,26.0587629 C7.16834672,25.2152537 6.72931547,24.2229315 6.72931547,23.237662 C6.72931547,22.2523925 7.16834672,21.2600703 8.04706547,20.4165611 C8.92578422,21.2600703 9.35431547,22.2523925 9.35431547,23.237662" id="Page-1-Copy-16" fill="#68C258" transform="translate(8.041815, 23.237662) scale(-1, 1) rotate(-315.000000) translate(-8.041815, -23.237662) "></path>
                        <path d="M9.35431547,23.237662 C9.35431547,24.2229315 8.92578422,25.2152537 8.04706547,26.0587629 C7.16834672,25.2152537 6.72931547,24.2229315 6.72931547,23.237662 C6.72931547,22.2523925 7.16834672,21.2600703 8.04706547,20.4165611 C8.92578422,21.2600703 9.35431547,22.2523925 9.35431547,23.237662" id="Page-1-Copy-15" fill="#2DAE7D" transform="translate(8.041815, 23.237662) scale(-1, 1) rotate(-315.000000) translate(-8.041815, -23.237662) "></path>
                        <path d="M5.22931547,18.3477537 C5.22931547,19.3330232 4.80078422,20.3253455 3.92206547,21.1688547 C3.04334672,20.3253455 2.60431547,19.3330232 2.60431547,18.3477537 C2.60431547,17.3624843 3.04334672,16.370162 3.92206547,15.5266528 C4.80078422,16.370162 5.22931547,17.3624843 5.22931547,18.3477537" id="Page-1-Copy-17" fill="#2DAE7D" transform="translate(3.916815, 18.347754) scale(-1, 1) rotate(-315.000000) translate(-3.916815, -18.347754) "></path>
                        <path d="M5.22931547,14.2101391 C5.22931547,15.1954086 4.80078422,16.1877308 3.92206547,17.03124 C3.04334672,16.1877308 2.60431547,15.1954086 2.60431547,14.2101391 C2.60431547,13.2248696 3.04334672,12.2325473 3.92206547,11.3890381 C4.80078422,12.2325473 5.22931547,13.2248696 5.22931547,14.2101391" id="Page-1-Copy-18" fill="#2DAE7D" transform="translate(3.916815, 14.210139) scale(-1, 1) rotate(-315.000000) translate(-3.916815, -14.210139) "></path>
                        <path d="M5.22931547,10.0725244 C5.22931547,11.0577939 4.80078422,12.0501161 3.92206547,12.8936253 C3.04334672,12.0501161 2.60431547,11.0577939 2.60431547,10.0725244 C2.60431547,9.08725489 3.04334672,8.09493265 3.92206547,7.25142347 C4.80078422,8.09493265 5.22931547,9.08725489 5.22931547,10.0725244" id="Page-1-Copy-19" fill="#2DAE7D" transform="translate(3.916815, 10.072524) scale(-1, 1) rotate(-315.000000) translate(-3.916815, -10.072524) "></path>
                        <path d="M5.22931547,18.3477537 C5.22931547,19.3330232 4.80078422,20.3253455 3.92206547,21.1688547 C3.04334672,20.3253455 2.60431547,19.3330232 2.60431547,18.3477537 C2.60431547,17.3624843 3.04334672,16.370162 3.92206547,15.5266528 C4.80078422,16.370162 5.22931547,17.3624843 5.22931547,18.3477537" id="Page-1-Copy-22" fill="#2DAE7D" transform="translate(3.916815, 18.347754) scale(-1, 1) rotate(-315.000000) translate(-3.916815, -18.347754) "></path>
                        <path d="M5.22931547,14.2101391 C5.22931547,15.1954086 4.80078422,16.1877308 3.92206547,17.03124 C3.04334672,16.1877308 2.60431547,15.1954086 2.60431547,14.2101391 C2.60431547,13.2248696 3.04334672,12.2325473 3.92206547,11.3890381 C4.80078422,12.2325473 5.22931547,13.2248696 5.22931547,14.2101391" id="Page-1-Copy-21" fill="#2DAE7D" transform="translate(3.916815, 14.210139) scale(-1, 1) rotate(-315.000000) translate(-3.916815, -14.210139) "></path>
                        <path d="M5.22931547,10.0725244 C5.22931547,11.0577939 4.80078422,12.0501161 3.92206547,12.8936253 C3.04334672,12.0501161 2.60431547,11.0577939 2.60431547,10.0725244 C2.60431547,9.08725489 3.04334672,8.09493265 3.92206547,7.25142347 C4.80078422,8.09493265 5.22931547,9.08725489 5.22931547,10.0725244" id="Page-1-Copy-20" fill="#2DAE7D" transform="translate(3.916815, 10.072524) scale(-1, 1) rotate(-315.000000) translate(-3.916815, -10.072524) "></path>
                        <path d="M20.2293155,18.3477537 C20.2293155,19.3330232 19.8007842,20.3253455 18.9220655,21.1688547 C18.0433467,20.3253455 17.6043155,19.3330232 17.6043155,18.3477537 C17.6043155,17.3624843 18.0433467,16.370162 18.9220655,15.5266528 C19.8007842,16.370162 20.2293155,17.3624843 20.2293155,18.3477537" id="Page-1-Copy-25" fill="#2DAE7D" transform="translate(18.916815, 18.347754) rotate(-315.000000) translate(-18.916815, -18.347754) "></path>
                        <path d="M20.2293155,14.2101391 C20.2293155,15.1954086 19.8007842,16.1877308 18.9220655,17.03124 C18.0433467,16.1877308 17.6043155,15.1954086 17.6043155,14.2101391 C17.6043155,13.2248696 18.0433467,12.2325473 18.9220655,11.3890381 C19.8007842,12.2325473 20.2293155,13.2248696 20.2293155,14.2101391" id="Page-1-Copy-24" fill="#2DAE7D" transform="translate(18.916815, 14.210139) rotate(-315.000000) translate(-18.916815, -14.210139) "></path>
                        <path d="M20.2293155,10.0725244 C20.2293155,11.0577939 19.8007842,12.0501161 18.9220655,12.8936253 C18.0433467,12.0501161 17.6043155,11.0577939 17.6043155,10.0725244 C17.6043155,9.08725489 18.0433467,8.09493265 18.9220655,7.25142347 C19.8007842,8.09493265 20.2293155,9.08725489 20.2293155,10.0725244" id="Page-1-Copy-23" fill="#2DAE7D" transform="translate(18.916815, 10.072524) rotate(-315.000000) translate(-18.916815, -10.072524) "></path>
                        <path d="M9.35431547,19.1000473 C9.35431547,20.0853168 8.92578422,21.0776391 8.04706547,21.9211482 C7.16834672,21.0776391 6.72931547,20.0853168 6.72931547,19.1000473 C6.72931547,18.1147778 7.16834672,17.1224556 8.04706547,16.2789464 C8.92578422,17.1224556 9.35431547,18.1147778 9.35431547,19.1000473" id="Page-1-Copy-14" fill="#2DAE7D" transform="translate(8.041815, 19.100047) scale(-1, 1) rotate(-315.000000) translate(-8.041815, -19.100047) "></path>
                        <path d="M9.35431547,14.9624326 C9.35431547,15.9477021 8.92578422,16.9400244 8.04706547,17.7835336 C7.16834672,16.9400244 6.72931547,15.9477021 6.72931547,14.9624326 C6.72931547,13.9771631 7.16834672,12.9848409 8.04706547,12.1413317 C8.92578422,12.9848409 9.35431547,13.9771631 9.35431547,14.9624326" id="Page-1-Copy-13" fill="#2DAE7D" transform="translate(8.041815, 14.962433) scale(-1, 1) rotate(-315.000000) translate(-8.041815, -14.962433) "></path>
                        <path d="M9.35431547,10.824818 C9.35431547,11.8100875 8.92578422,12.8024097 8.04706547,13.6459189 C7.16834672,12.8024097 6.72931547,11.8100875 6.72931547,10.824818 C6.72931547,9.83954847 7.16834672,8.84722622 8.04706547,8.00371705 C8.92578422,8.84722622 9.35431547,9.83954847 9.35431547,10.824818" id="Page-1-Copy-12" fill="#2DAE7D" transform="translate(8.041815, 10.824818) scale(-1, 1) rotate(-315.000000) translate(-8.041815, -10.824818) "></path>
                        <path d="M9.35431547,6.68720329 C9.35431547,7.67247278 8.92578422,8.66479503 8.04706547,9.5083042 C7.16834672,8.66479503 6.72931547,7.67247278 6.72931547,6.68720329 C6.72931547,5.70193379 7.16834672,4.70961154 8.04706547,3.86610237 C8.92578422,4.70961154 9.35431547,5.70193379 9.35431547,6.68720329" id="Page-1-Copy-11" fill="#2DAE7D" transform="translate(8.041815, 6.687203) scale(-1, 1) rotate(-315.000000) translate(-8.041815, -6.687203) "></path>
                    </g>
                    <g id="arbre" transform="translate(266.000000, 82.000000)">
                        <rect id="Rectangle-327" fill="#1C1833" x="11.125" y="6.7706422" width="0.75" height="33.1009174"></rect>
                        <path d="M16.1043155,23.237662 C16.1043155,24.2229315 15.6757842,25.2152537 14.7970655,26.0587629 C13.9183467,25.2152537 13.4793155,24.2229315 13.4793155,23.237662 C13.4793155,22.2523925 13.9183467,21.2600703 14.7970655,20.4165611 C15.6757842,21.2600703 16.1043155,22.2523925 16.1043155,23.237662" id="Page-1" fill="#68C258" transform="translate(14.791815, 23.237662) rotate(-315.000000) translate(-14.791815, -23.237662) "></path>
                        <path d="M16.1043155,23.237662 C16.1043155,24.2229315 15.6757842,25.2152537 14.7970655,26.0587629 C13.9183467,25.2152537 13.4793155,24.2229315 13.4793155,23.237662 C13.4793155,22.2523925 13.9183467,21.2600703 14.7970655,20.4165611 C15.6757842,21.2600703 16.1043155,22.2523925 16.1043155,23.237662" id="Page-1-Copy-6" fill="#2DAE7D" transform="translate(14.791815, 23.237662) rotate(-315.000000) translate(-14.791815, -23.237662) "></path>
                        <path d="M16.1043155,19.1000473 C16.1043155,20.0853168 15.6757842,21.0776391 14.7970655,21.9211482 C13.9183467,21.0776391 13.4793155,20.0853168 13.4793155,19.1000473 C13.4793155,18.1147778 13.9183467,17.1224556 14.7970655,16.2789464 C15.6757842,17.1224556 16.1043155,18.1147778 16.1043155,19.1000473" id="Page-1-Copy-7" fill="#2DAE7D" transform="translate(14.791815, 19.100047) rotate(-315.000000) translate(-14.791815, -19.100047) "></path>
                        <path d="M16.1043155,14.9624326 C16.1043155,15.9477021 15.6757842,16.9400244 14.7970655,17.7835336 C13.9183467,16.9400244 13.4793155,15.9477021 13.4793155,14.9624326 C13.4793155,13.9771631 13.9183467,12.9848409 14.7970655,12.1413317 C15.6757842,12.9848409 16.1043155,13.9771631 16.1043155,14.9624326" id="Page-1-Copy-8" fill="#2DAE7D" transform="translate(14.791815, 14.962433) rotate(-315.000000) translate(-14.791815, -14.962433) "></path>
                        <path d="M16.1043155,10.824818 C16.1043155,11.8100875 15.6757842,12.8024097 14.7970655,13.6459189 C13.9183467,12.8024097 13.4793155,11.8100875 13.4793155,10.824818 C13.4793155,9.83954847 13.9183467,8.84722622 14.7970655,8.00371705 C15.6757842,8.84722622 16.1043155,9.83954847 16.1043155,10.824818" id="Page-1-Copy-9" fill="#2DAE7D" transform="translate(14.791815, 10.824818) rotate(-315.000000) translate(-14.791815, -10.824818) "></path>
                        <path d="M16.1043155,6.68720329 C16.1043155,7.67247278 15.6757842,8.66479503 14.7970655,9.5083042 C13.9183467,8.66479503 13.4793155,7.67247278 13.4793155,6.68720329 C13.4793155,5.70193379 13.9183467,4.70961154 14.7970655,3.86610237 C15.6757842,4.70961154 16.1043155,5.70193379 16.1043155,6.68720329" id="Page-1-Copy-10" fill="#2DAE7D" transform="translate(14.791815, 6.687203) rotate(-315.000000) translate(-14.791815, -6.687203) "></path>
                        <path d="M12.7293155,2.9257354 C12.7293155,3.91100489 12.3007842,4.90332714 11.4220655,5.74683631 C10.5433467,4.90332714 10.1043155,3.91100489 10.1043155,2.9257354 C10.1043155,1.9404659 10.5433467,0.948143654 11.4220655,0.10463448 C12.3007842,0.948143654 12.7293155,1.9404659 12.7293155,2.9257354" id="Page-1-Copy-26" fill="#2DAE7D"></path>
                        <path d="M9.35431547,23.237662 C9.35431547,24.2229315 8.92578422,25.2152537 8.04706547,26.0587629 C7.16834672,25.2152537 6.72931547,24.2229315 6.72931547,23.237662 C6.72931547,22.2523925 7.16834672,21.2600703 8.04706547,20.4165611 C8.92578422,21.2600703 9.35431547,22.2523925 9.35431547,23.237662" id="Page-1-Copy-16" fill="#68C258" transform="translate(8.041815, 23.237662) scale(-1, 1) rotate(-315.000000) translate(-8.041815, -23.237662) "></path>
                        <path d="M9.35431547,23.237662 C9.35431547,24.2229315 8.92578422,25.2152537 8.04706547,26.0587629 C7.16834672,25.2152537 6.72931547,24.2229315 6.72931547,23.237662 C6.72931547,22.2523925 7.16834672,21.2600703 8.04706547,20.4165611 C8.92578422,21.2600703 9.35431547,22.2523925 9.35431547,23.237662" id="Page-1-Copy-15" fill="#2DAE7D" transform="translate(8.041815, 23.237662) scale(-1, 1) rotate(-315.000000) translate(-8.041815, -23.237662) "></path>
                        <path d="M5.22931547,18.3477537 C5.22931547,19.3330232 4.80078422,20.3253455 3.92206547,21.1688547 C3.04334672,20.3253455 2.60431547,19.3330232 2.60431547,18.3477537 C2.60431547,17.3624843 3.04334672,16.370162 3.92206547,15.5266528 C4.80078422,16.370162 5.22931547,17.3624843 5.22931547,18.3477537" id="Page-1-Copy-17" fill="#2DAE7D" transform="translate(3.916815, 18.347754) scale(-1, 1) rotate(-315.000000) translate(-3.916815, -18.347754) "></path>
                        <path d="M5.22931547,14.2101391 C5.22931547,15.1954086 4.80078422,16.1877308 3.92206547,17.03124 C3.04334672,16.1877308 2.60431547,15.1954086 2.60431547,14.2101391 C2.60431547,13.2248696 3.04334672,12.2325473 3.92206547,11.3890381 C4.80078422,12.2325473 5.22931547,13.2248696 5.22931547,14.2101391" id="Page-1-Copy-18" fill="#2DAE7D" transform="translate(3.916815, 14.210139) scale(-1, 1) rotate(-315.000000) translate(-3.916815, -14.210139) "></path>
                        <path d="M5.22931547,10.0725244 C5.22931547,11.0577939 4.80078422,12.0501161 3.92206547,12.8936253 C3.04334672,12.0501161 2.60431547,11.0577939 2.60431547,10.0725244 C2.60431547,9.08725489 3.04334672,8.09493265 3.92206547,7.25142347 C4.80078422,8.09493265 5.22931547,9.08725489 5.22931547,10.0725244" id="Page-1-Copy-19" fill="#2DAE7D" transform="translate(3.916815, 10.072524) scale(-1, 1) rotate(-315.000000) translate(-3.916815, -10.072524) "></path>
                        <path d="M5.22931547,18.3477537 C5.22931547,19.3330232 4.80078422,20.3253455 3.92206547,21.1688547 C3.04334672,20.3253455 2.60431547,19.3330232 2.60431547,18.3477537 C2.60431547,17.3624843 3.04334672,16.370162 3.92206547,15.5266528 C4.80078422,16.370162 5.22931547,17.3624843 5.22931547,18.3477537" id="Page-1-Copy-22" fill="#2DAE7D" transform="translate(3.916815, 18.347754) scale(-1, 1) rotate(-315.000000) translate(-3.916815, -18.347754) "></path>
                        <path d="M5.22931547,14.2101391 C5.22931547,15.1954086 4.80078422,16.1877308 3.92206547,17.03124 C3.04334672,16.1877308 2.60431547,15.1954086 2.60431547,14.2101391 C2.60431547,13.2248696 3.04334672,12.2325473 3.92206547,11.3890381 C4.80078422,12.2325473 5.22931547,13.2248696 5.22931547,14.2101391" id="Page-1-Copy-21" fill="#2DAE7D" transform="translate(3.916815, 14.210139) scale(-1, 1) rotate(-315.000000) translate(-3.916815, -14.210139) "></path>
                        <path d="M5.22931547,10.0725244 C5.22931547,11.0577939 4.80078422,12.0501161 3.92206547,12.8936253 C3.04334672,12.0501161 2.60431547,11.0577939 2.60431547,10.0725244 C2.60431547,9.08725489 3.04334672,8.09493265 3.92206547,7.25142347 C4.80078422,8.09493265 5.22931547,9.08725489 5.22931547,10.0725244" id="Page-1-Copy-20" fill="#2DAE7D" transform="translate(3.916815, 10.072524) scale(-1, 1) rotate(-315.000000) translate(-3.916815, -10.072524) "></path>
                        <path d="M20.2293155,18.3477537 C20.2293155,19.3330232 19.8007842,20.3253455 18.9220655,21.1688547 C18.0433467,20.3253455 17.6043155,19.3330232 17.6043155,18.3477537 C17.6043155,17.3624843 18.0433467,16.370162 18.9220655,15.5266528 C19.8007842,16.370162 20.2293155,17.3624843 20.2293155,18.3477537" id="Page-1-Copy-25" fill="#2DAE7D" transform="translate(18.916815, 18.347754) rotate(-315.000000) translate(-18.916815, -18.347754) "></path>
                        <path d="M20.2293155,14.2101391 C20.2293155,15.1954086 19.8007842,16.1877308 18.9220655,17.03124 C18.0433467,16.1877308 17.6043155,15.1954086 17.6043155,14.2101391 C17.6043155,13.2248696 18.0433467,12.2325473 18.9220655,11.3890381 C19.8007842,12.2325473 20.2293155,13.2248696 20.2293155,14.2101391" id="Page-1-Copy-24" fill="#2DAE7D" transform="translate(18.916815, 14.210139) rotate(-315.000000) translate(-18.916815, -14.210139) "></path>
                        <path d="M20.2293155,10.0725244 C20.2293155,11.0577939 19.8007842,12.0501161 18.9220655,12.8936253 C18.0433467,12.0501161 17.6043155,11.0577939 17.6043155,10.0725244 C17.6043155,9.08725489 18.0433467,8.09493265 18.9220655,7.25142347 C19.8007842,8.09493265 20.2293155,9.08725489 20.2293155,10.0725244" id="Page-1-Copy-23" fill="#2DAE7D" transform="translate(18.916815, 10.072524) rotate(-315.000000) translate(-18.916815, -10.072524) "></path>
                        <path d="M9.35431547,19.1000473 C9.35431547,20.0853168 8.92578422,21.0776391 8.04706547,21.9211482 C7.16834672,21.0776391 6.72931547,20.0853168 6.72931547,19.1000473 C6.72931547,18.1147778 7.16834672,17.1224556 8.04706547,16.2789464 C8.92578422,17.1224556 9.35431547,18.1147778 9.35431547,19.1000473" id="Page-1-Copy-14" fill="#2DAE7D" transform="translate(8.041815, 19.100047) scale(-1, 1) rotate(-315.000000) translate(-8.041815, -19.100047) "></path>
                        <path d="M9.35431547,14.9624326 C9.35431547,15.9477021 8.92578422,16.9400244 8.04706547,17.7835336 C7.16834672,16.9400244 6.72931547,15.9477021 6.72931547,14.9624326 C6.72931547,13.9771631 7.16834672,12.9848409 8.04706547,12.1413317 C8.92578422,12.9848409 9.35431547,13.9771631 9.35431547,14.9624326" id="Page-1-Copy-13" fill="#2DAE7D" transform="translate(8.041815, 14.962433) scale(-1, 1) rotate(-315.000000) translate(-8.041815, -14.962433) "></path>
                        <path d="M9.35431547,10.824818 C9.35431547,11.8100875 8.92578422,12.8024097 8.04706547,13.6459189 C7.16834672,12.8024097 6.72931547,11.8100875 6.72931547,10.824818 C6.72931547,9.83954847 7.16834672,8.84722622 8.04706547,8.00371705 C8.92578422,8.84722622 9.35431547,9.83954847 9.35431547,10.824818" id="Page-1-Copy-12" fill="#2DAE7D" transform="translate(8.041815, 10.824818) scale(-1, 1) rotate(-315.000000) translate(-8.041815, -10.824818) "></path>
                        <path d="M9.35431547,6.68720329 C9.35431547,7.67247278 8.92578422,8.66479503 8.04706547,9.5083042 C7.16834672,8.66479503 6.72931547,7.67247278 6.72931547,6.68720329 C6.72931547,5.70193379 7.16834672,4.70961154 8.04706547,3.86610237 C8.92578422,4.70961154 9.35431547,5.70193379 9.35431547,6.68720329" id="Page-1-Copy-11" fill="#2DAE7D" transform="translate(8.041815, 6.687203) scale(-1, 1) rotate(-315.000000) translate(-8.041815, -6.687203) "></path>
                    </g>
                    <g id="arbre" transform="translate(1232.000000, 78.000000)">
                        <rect id="Rectangle-327" fill="#1C1833" x="11.125" y="6.7706422" width="0.75" height="33.1009174"></rect>
                        <path d="M16.1043155,23.237662 C16.1043155,24.2229315 15.6757842,25.2152537 14.7970655,26.0587629 C13.9183467,25.2152537 13.4793155,24.2229315 13.4793155,23.237662 C13.4793155,22.2523925 13.9183467,21.2600703 14.7970655,20.4165611 C15.6757842,21.2600703 16.1043155,22.2523925 16.1043155,23.237662" id="Page-1" fill="#68C258" transform="translate(14.791815, 23.237662) rotate(-315.000000) translate(-14.791815, -23.237662) "></path>
                        <path d="M16.1043155,23.237662 C16.1043155,24.2229315 15.6757842,25.2152537 14.7970655,26.0587629 C13.9183467,25.2152537 13.4793155,24.2229315 13.4793155,23.237662 C13.4793155,22.2523925 13.9183467,21.2600703 14.7970655,20.4165611 C15.6757842,21.2600703 16.1043155,22.2523925 16.1043155,23.237662" id="Page-1-Copy-6" fill="#2DAE7D" transform="translate(14.791815, 23.237662) rotate(-315.000000) translate(-14.791815, -23.237662) "></path>
                        <path d="M16.1043155,19.1000473 C16.1043155,20.0853168 15.6757842,21.0776391 14.7970655,21.9211482 C13.9183467,21.0776391 13.4793155,20.0853168 13.4793155,19.1000473 C13.4793155,18.1147778 13.9183467,17.1224556 14.7970655,16.2789464 C15.6757842,17.1224556 16.1043155,18.1147778 16.1043155,19.1000473" id="Page-1-Copy-7" fill="#2DAE7D" transform="translate(14.791815, 19.100047) rotate(-315.000000) translate(-14.791815, -19.100047) "></path>
                        <path d="M16.1043155,14.9624326 C16.1043155,15.9477021 15.6757842,16.9400244 14.7970655,17.7835336 C13.9183467,16.9400244 13.4793155,15.9477021 13.4793155,14.9624326 C13.4793155,13.9771631 13.9183467,12.9848409 14.7970655,12.1413317 C15.6757842,12.9848409 16.1043155,13.9771631 16.1043155,14.9624326" id="Page-1-Copy-8" fill="#2DAE7D" transform="translate(14.791815, 14.962433) rotate(-315.000000) translate(-14.791815, -14.962433) "></path>
                        <path d="M16.1043155,10.824818 C16.1043155,11.8100875 15.6757842,12.8024097 14.7970655,13.6459189 C13.9183467,12.8024097 13.4793155,11.8100875 13.4793155,10.824818 C13.4793155,9.83954847 13.9183467,8.84722622 14.7970655,8.00371705 C15.6757842,8.84722622 16.1043155,9.83954847 16.1043155,10.824818" id="Page-1-Copy-9" fill="#2DAE7D" transform="translate(14.791815, 10.824818) rotate(-315.000000) translate(-14.791815, -10.824818) "></path>
                        <path d="M16.1043155,6.68720329 C16.1043155,7.67247278 15.6757842,8.66479503 14.7970655,9.5083042 C13.9183467,8.66479503 13.4793155,7.67247278 13.4793155,6.68720329 C13.4793155,5.70193379 13.9183467,4.70961154 14.7970655,3.86610237 C15.6757842,4.70961154 16.1043155,5.70193379 16.1043155,6.68720329" id="Page-1-Copy-10" fill="#2DAE7D" transform="translate(14.791815, 6.687203) rotate(-315.000000) translate(-14.791815, -6.687203) "></path>
                        <path d="M12.7293155,2.9257354 C12.7293155,3.91100489 12.3007842,4.90332714 11.4220655,5.74683631 C10.5433467,4.90332714 10.1043155,3.91100489 10.1043155,2.9257354 C10.1043155,1.9404659 10.5433467,0.948143654 11.4220655,0.10463448 C12.3007842,0.948143654 12.7293155,1.9404659 12.7293155,2.9257354" id="Page-1-Copy-26" fill="#2DAE7D"></path>
                        <path d="M9.35431547,23.237662 C9.35431547,24.2229315 8.92578422,25.2152537 8.04706547,26.0587629 C7.16834672,25.2152537 6.72931547,24.2229315 6.72931547,23.237662 C6.72931547,22.2523925 7.16834672,21.2600703 8.04706547,20.4165611 C8.92578422,21.2600703 9.35431547,22.2523925 9.35431547,23.237662" id="Page-1-Copy-16" fill="#68C258" transform="translate(8.041815, 23.237662) scale(-1, 1) rotate(-315.000000) translate(-8.041815, -23.237662) "></path>
                        <path d="M9.35431547,23.237662 C9.35431547,24.2229315 8.92578422,25.2152537 8.04706547,26.0587629 C7.16834672,25.2152537 6.72931547,24.2229315 6.72931547,23.237662 C6.72931547,22.2523925 7.16834672,21.2600703 8.04706547,20.4165611 C8.92578422,21.2600703 9.35431547,22.2523925 9.35431547,23.237662" id="Page-1-Copy-15" fill="#2DAE7D" transform="translate(8.041815, 23.237662) scale(-1, 1) rotate(-315.000000) translate(-8.041815, -23.237662) "></path>
                        <path d="M5.22931547,18.3477537 C5.22931547,19.3330232 4.80078422,20.3253455 3.92206547,21.1688547 C3.04334672,20.3253455 2.60431547,19.3330232 2.60431547,18.3477537 C2.60431547,17.3624843 3.04334672,16.370162 3.92206547,15.5266528 C4.80078422,16.370162 5.22931547,17.3624843 5.22931547,18.3477537" id="Page-1-Copy-17" fill="#2DAE7D" transform="translate(3.916815, 18.347754) scale(-1, 1) rotate(-315.000000) translate(-3.916815, -18.347754) "></path>
                        <path d="M5.22931547,14.2101391 C5.22931547,15.1954086 4.80078422,16.1877308 3.92206547,17.03124 C3.04334672,16.1877308 2.60431547,15.1954086 2.60431547,14.2101391 C2.60431547,13.2248696 3.04334672,12.2325473 3.92206547,11.3890381 C4.80078422,12.2325473 5.22931547,13.2248696 5.22931547,14.2101391" id="Page-1-Copy-18" fill="#2DAE7D" transform="translate(3.916815, 14.210139) scale(-1, 1) rotate(-315.000000) translate(-3.916815, -14.210139) "></path>
                        <path d="M5.22931547,10.0725244 C5.22931547,11.0577939 4.80078422,12.0501161 3.92206547,12.8936253 C3.04334672,12.0501161 2.60431547,11.0577939 2.60431547,10.0725244 C2.60431547,9.08725489 3.04334672,8.09493265 3.92206547,7.25142347 C4.80078422,8.09493265 5.22931547,9.08725489 5.22931547,10.0725244" id="Page-1-Copy-19" fill="#2DAE7D" transform="translate(3.916815, 10.072524) scale(-1, 1) rotate(-315.000000) translate(-3.916815, -10.072524) "></path>
                        <path d="M5.22931547,18.3477537 C5.22931547,19.3330232 4.80078422,20.3253455 3.92206547,21.1688547 C3.04334672,20.3253455 2.60431547,19.3330232 2.60431547,18.3477537 C2.60431547,17.3624843 3.04334672,16.370162 3.92206547,15.5266528 C4.80078422,16.370162 5.22931547,17.3624843 5.22931547,18.3477537" id="Page-1-Copy-22" fill="#2DAE7D" transform="translate(3.916815, 18.347754) scale(-1, 1) rotate(-315.000000) translate(-3.916815, -18.347754) "></path>
                        <path d="M5.22931547,14.2101391 C5.22931547,15.1954086 4.80078422,16.1877308 3.92206547,17.03124 C3.04334672,16.1877308 2.60431547,15.1954086 2.60431547,14.2101391 C2.60431547,13.2248696 3.04334672,12.2325473 3.92206547,11.3890381 C4.80078422,12.2325473 5.22931547,13.2248696 5.22931547,14.2101391" id="Page-1-Copy-21" fill="#2DAE7D" transform="translate(3.916815, 14.210139) scale(-1, 1) rotate(-315.000000) translate(-3.916815, -14.210139) "></path>
                        <path d="M5.22931547,10.0725244 C5.22931547,11.0577939 4.80078422,12.0501161 3.92206547,12.8936253 C3.04334672,12.0501161 2.60431547,11.0577939 2.60431547,10.0725244 C2.60431547,9.08725489 3.04334672,8.09493265 3.92206547,7.25142347 C4.80078422,8.09493265 5.22931547,9.08725489 5.22931547,10.0725244" id="Page-1-Copy-20" fill="#2DAE7D" transform="translate(3.916815, 10.072524) scale(-1, 1) rotate(-315.000000) translate(-3.916815, -10.072524) "></path>
                        <path d="M20.2293155,18.3477537 C20.2293155,19.3330232 19.8007842,20.3253455 18.9220655,21.1688547 C18.0433467,20.3253455 17.6043155,19.3330232 17.6043155,18.3477537 C17.6043155,17.3624843 18.0433467,16.370162 18.9220655,15.5266528 C19.8007842,16.370162 20.2293155,17.3624843 20.2293155,18.3477537" id="Page-1-Copy-25" fill="#2DAE7D" transform="translate(18.916815, 18.347754) rotate(-315.000000) translate(-18.916815, -18.347754) "></path>
                        <path d="M20.2293155,14.2101391 C20.2293155,15.1954086 19.8007842,16.1877308 18.9220655,17.03124 C18.0433467,16.1877308 17.6043155,15.1954086 17.6043155,14.2101391 C17.6043155,13.2248696 18.0433467,12.2325473 18.9220655,11.3890381 C19.8007842,12.2325473 20.2293155,13.2248696 20.2293155,14.2101391" id="Page-1-Copy-24" fill="#2DAE7D" transform="translate(18.916815, 14.210139) rotate(-315.000000) translate(-18.916815, -14.210139) "></path>
                        <path d="M20.2293155,10.0725244 C20.2293155,11.0577939 19.8007842,12.0501161 18.9220655,12.8936253 C18.0433467,12.0501161 17.6043155,11.0577939 17.6043155,10.0725244 C17.6043155,9.08725489 18.0433467,8.09493265 18.9220655,7.25142347 C19.8007842,8.09493265 20.2293155,9.08725489 20.2293155,10.0725244" id="Page-1-Copy-23" fill="#2DAE7D" transform="translate(18.916815, 10.072524) rotate(-315.000000) translate(-18.916815, -10.072524) "></path>
                        <path d="M9.35431547,19.1000473 C9.35431547,20.0853168 8.92578422,21.0776391 8.04706547,21.9211482 C7.16834672,21.0776391 6.72931547,20.0853168 6.72931547,19.1000473 C6.72931547,18.1147778 7.16834672,17.1224556 8.04706547,16.2789464 C8.92578422,17.1224556 9.35431547,18.1147778 9.35431547,19.1000473" id="Page-1-Copy-14" fill="#2DAE7D" transform="translate(8.041815, 19.100047) scale(-1, 1) rotate(-315.000000) translate(-8.041815, -19.100047) "></path>
                        <path d="M9.35431547,14.9624326 C9.35431547,15.9477021 8.92578422,16.9400244 8.04706547,17.7835336 C7.16834672,16.9400244 6.72931547,15.9477021 6.72931547,14.9624326 C6.72931547,13.9771631 7.16834672,12.9848409 8.04706547,12.1413317 C8.92578422,12.9848409 9.35431547,13.9771631 9.35431547,14.9624326" id="Page-1-Copy-13" fill="#2DAE7D" transform="translate(8.041815, 14.962433) scale(-1, 1) rotate(-315.000000) translate(-8.041815, -14.962433) "></path>
                        <path d="M9.35431547,10.824818 C9.35431547,11.8100875 8.92578422,12.8024097 8.04706547,13.6459189 C7.16834672,12.8024097 6.72931547,11.8100875 6.72931547,10.824818 C6.72931547,9.83954847 7.16834672,8.84722622 8.04706547,8.00371705 C8.92578422,8.84722622 9.35431547,9.83954847 9.35431547,10.824818" id="Page-1-Copy-12" fill="#2DAE7D" transform="translate(8.041815, 10.824818) scale(-1, 1) rotate(-315.000000) translate(-8.041815, -10.824818) "></path>
                        <path d="M9.35431547,6.68720329 C9.35431547,7.67247278 8.92578422,8.66479503 8.04706547,9.5083042 C7.16834672,8.66479503 6.72931547,7.67247278 6.72931547,6.68720329 C6.72931547,5.70193379 7.16834672,4.70961154 8.04706547,3.86610237 C8.92578422,4.70961154 9.35431547,5.70193379 9.35431547,6.68720329" id="Page-1-Copy-11" fill="#2DAE7D" transform="translate(8.041815, 6.687203) scale(-1, 1) rotate(-315.000000) translate(-8.041815, -6.687203) "></path>
                    </g>
                </g>
                <path d="M0,195.97 L1440,195.97 L1440,120.94687 C1440,120.94687 1350.997,79.7095291 929.738,134.088358 C508.479,188.467812 0,195.97 0,195.97" id="paysage" fill="#F8F8F9" transform="translate(720.000000, 150.970017) scale(-1, 1) translate(-720.000000, -150.970017) "></path>
                <g id="panneau" transform="translate(748.000000, 57.000000)">
                    <rect id="Rectangle-338" fill="#2DAE7D" transform="translate(84.000000, 63.500000) rotate(-15.000000) translate(-84.000000, -63.500000) " x="81" y="-1" width="6" height="129" rx="3"></rect>
                    <path d="M49.3035907,12.8407445 C47.6497129,12.8407445 45.2992437,13.7257849 44.0542908,14.816994 L32.2248454,25.1855783 C30.9796149,26.2770308 30.9798925,28.0468682 32.2248454,29.1380774 L44.0542908,39.5066617 C45.2995212,40.5981141 47.6489622,41.4829112 49.3035907,41.4829112 L105.4019,41.4829112 C107.055778,41.4829112 108.396511,40.1398568 108.396511,38.4853054 L108.396511,15.8383503 C108.396511,14.1828184 107.056528,12.8407445 105.4019,12.8407445 L49.3035907,12.8407445 Z" id="Page-1" fill="#FACC39" transform="translate(69.843769, 27.161828) rotate(-15.000000) translate(-69.843769, -27.161828) "></path>
                    <text id="PLUS-ICI" transform="translate(50.758975, 32.000000) rotate(-15.000000) translate(-50.758975, -32.000000) " font-family="GTWalsheim-Medium, GT Walsheim" font-size="14" font-weight="400" fill="#FFFFFF">
                        <tspan x="47.4984179" y="37">PLUS ICI</tspan>
                    </text>
                </g>
                <g id="homme" transform="translate(590.000000, 31.000000)">
                    <g id="body" transform="translate(0.000000, 30.000000)">
                        <path d="M25.8752277,42.2714836 L13.7169085,42.2714836 C6.14122766,42.2714836 -2.76595745e-05,35.7429072 -2.76595745e-05,27.6897762 L-2.76595745e-05,27.6894989 C-2.76595745e-05,19.6363679 6.14122766,13.1077915 13.7169085,13.1077915 L25.8752277,13.1077915" id="arm" stroke="#49D1E2" stroke-width="7"></path>
                        <path d="M25.8752277,13.1077915 L38.0335468,13.1077915 C45.6092277,13.1077915 51.750483,19.6363679 51.750483,27.6894989 L51.750483,27.6897762 C51.750483,35.7429072 45.6092277,42.2714836 38.0335468,42.2714836 L25.8752277,42.2714836" id="arm" stroke="#49D1E2" stroke-width="7"></path>
                        <path d="M20.1914894,48.2739251 L20.1914894,118.512191" id="leg" stroke="#1C1833" stroke-width="7"></path>
                        <path d="M34.3269979,48.2739251 L35.569466,60.589955 C36.5823596,70.6330237 36.6957638,80.7667599 35.907466,90.8355543 L34.933505,103.273925" id="leg" stroke="#1C1833" stroke-width="7"></path>
                        <use id="shoe" stroke-opacity="0.2" stroke="#1C1833" mask="url(#mask-2)" stroke-width="2" fill="#FFFFFF" xlink:href="#path-1"></use>
                        <path d="M34.9309082,103.095698 C33.6520452,103.014037 32.4442078,102.803858 32.4442078,102.803858 C31.9015671,102.72002 31.3073181,103.073154 31.1206894,103.58231 L30.3084904,105.79813 C29.5490211,107.870094 30.7185747,109.720845 32.9164206,109.931481 L44.7010707,111.060896 C46.9938633,111.280632 48.178934,109.718443 47.3481191,107.571957 L47.1806895,107.139387 C46.3498213,104.992763 43.8048762,103.212179 41.5122989,103.162685 L38.4094238,103.095698 C38.4094238,103.095698 35.9679632,103.161918 34.9309082,103.095698 Z" id="Path-409" stroke-opacity="0.2" stroke="#1C1833" fill="#FFFFFF"></path>
                        <path d="M37.8915426,51.4012862 L16.6249255,51.4012862 C16.3192872,51.4012862 16.071734,51.1531094 16.071734,50.8467011 L16.071734,10.9540046 L38.444734,10.9540046 L38.444734,50.8467011 C38.444734,51.1531094 38.1971809,51.4012862 37.8915426,51.4012862" id="Fill-9" fill="#49D1E2"></path>
                        <path d="M18.388417,47.1605954 L18.388417,47.1605954 C20.4316298,47.1605954 22.0881617,45.4998902 22.0881617,43.4515299 L22.0881617,40.5876522 C22.0881617,38.5392919 20.4316298,36.8785867 18.388417,36.8785867 L18.388417,36.8785867 C16.3452043,36.8785867 14.6886723,38.5392919 14.6886723,40.5876522 L14.6886723,43.4515299 C14.6886723,45.4998902 16.3452043,47.1605954 18.388417,47.1605954" id="Fill-11" fill="#FFF4EC"></path>
                        <path d="M37.7501191,47.1605954 L37.7501191,47.1605954 C39.7933319,47.1605954 41.4498638,45.4998902 41.4498638,43.4515299 L41.4498638,40.5876522 C41.4498638,38.5392919 39.7933319,36.8785867 37.7501191,36.8785867 L37.7501191,36.8785867 C35.7069064,36.8785867 34.0503745,38.5392919 34.0503745,40.5876522 L34.0503745,43.4515299 C34.0503745,45.4998902 35.7069064,47.1605954 37.7501191,47.1605954" id="Fill-13" fill="#FFF4EC"></path>
                        <path d="M27.8483511,12.9540878 L27.8483511,12.9540878 C25.9439894,12.9540878 24.4000319,11.4062406 24.4000319,9.49708122 L24.4000319,1.24180393 C24.4000319,0.914875983 24.6641809,0.650061572 24.9902872,0.650061572 L30.7064149,0.650061572 C31.0325213,0.650061572 31.2966702,0.914875983 31.2966702,1.24180393 L31.2966702,9.49708122 C31.2966702,11.4062406 29.7527128,12.9540878 27.8483511,12.9540878" id="Fill-23" fill="#FFF4EC"></path>
                    </g>
                    <g id="head" transform="translate(30.717038, 18.294884) rotate(8.000000) translate(-30.717038, -18.294884) translate(19.217038, 2.294884)">
                        <path d="M10.8483511,31.6606271 L10.8483511,31.6606271 C5.71196809,31.6606271 1.54809574,27.4862646 1.54809574,22.3369415 L1.54809574,8.72298515 C1.54809574,7.77131703 2.31758511,7.00016638 3.26658511,7.00016638 L18.430117,7.00016638 C19.379117,7.00016638 20.1486064,7.77131703 20.1486064,8.72298515 L20.1486064,22.3369415 C20.1486064,27.4862646 15.984734,31.6606271 10.8483511,31.6606271" id="Fill-25" fill="#FFF4EC"></path>
                        <circle id="Oval-87" fill="#1C1833" cx="17" cy="15" r="1"></circle>
                        <circle id="Oval-87-Copy" fill="#1C1833" cx="12" cy="15" r="1"></circle>
                        <mask id="mask-4" fill="white">
                            <use xlink:href="#path-3"></use>
                        </mask>
                        <use id="Oval-87-Copy-2" fill="#FFFFFF" xlink:href="#path-3"></use>
                        <circle id="Oval-87-Copy-3" fill="#E73269" mask="url(#mask-4)" cx="14.5" cy="25.5" r="2.5"></circle>
                        <polyline id="Path-410" stroke-opacity="0.2" stroke="#95560E" stroke-linecap="round" stroke-linejoin="round" points="15.2032219 17.4248047 15.8481445 19.4248047 14.5 19.4248047"></polyline>
                        <path d="M2.51327478,16 C1.16917706,16 0.0795931818,17.0895839 0.0795931818,18.4336816 C0.0795931818,19.7777793 1.16917706,20.8674773 2.51327478,20.8674773" id="Stroke-1" stroke="#EAD4BF" fill="#FFF4EB"></path>
                        <path d="M4.58496094,9.96801758 C4.58496094,9.96801758 4.58496103,10.9333496 4.29541025,13.3085938 C4.00585947,15.6838379 3.4462593,16.4960575 3.4462593,16.4960575 C3.21179742,16.9887651 2.8825873,16.9617114 2.71192543,16.4386275 L2.39477539,15.4665527 L2.29458201,15.4868302 C1.7503054,15.5969829 1.22327043,15.2403569 1.12076595,14.69523 C1.12076595,14.69523 0.662353723,12.3864431 0.553736561,11.1373505 C0.439454476,9.82311144 0.55373656,6.9998392 0.55373656,6.9998392 L4.58496094,9.96801758 Z" id="Path-412" stroke="#D6B28F" fill="#D5B18F"></path>
                        <path d="M0.385868768,5.28009136 C0.0562789267,9.51324564 3.78796838,9.41168318 3.78796838,9.41168318 C3.78796838,9.41168318 12.1685836,12.3843394 17.4300582,12.8428355 C22.6915328,13.3013316 22.6915328,10.9802867 22.6915328,10.9802867 C22.6915328,10.9802867 20.9156539,10.3045054 19.5177047,7.14320622 C18.1197555,3.98190699 17.917607,2.04571639 13.2397506,1.04693709 C8.56189416,0.0481577818 0.715458609,1.04693708 0.385868768,5.28009136 Z" id="Path-413" stroke="#D5B18F" fill="#D5B18F"></path>
                    </g>
                </g>
            </g>
        </g>
    </g>
</svg>