<?xml version="1.0" encoding="utf-8"?>
<!-- Generator: Adobe Illustrator 19.2.1, SVG Export Plug-In . SVG Version: 6.00 Build 0)  -->
<svg version="1.1" id="Calque_1" xmlns="http://www.w3.org/2000/svg" xmlns:xlink="http://www.w3.org/1999/xlink" x="0px" y="0px"
	 viewBox="0 0 1451.782 249.529" style="enable-background:new 0 0 1451.782 249.529;" xml:space="preserve">
<style type="text/css">
	.st0{fill:#FFFFFF;}
	.st1{enable-background:new    ;}
</style>
<title>logo_climateriaux_horizontal@2x</title>
<desc>Created with Sketch.</desc>
<g id="Page-1_1_">
	<g id="climateriaux_logo_1200_horizontal_blanc" transform="translate(0.000000, -481.000000)">
		<g id="logo_climateriaux_horizontal" transform="translate(-1.000000, 481.000000)">
			<g id="Page-1-Copy" transform="translate(0.267176, 0.000000)">
				<path id="Fill-11" class="st0" d="M230.404,183.419c28.624-67.531-41.499-142.361-59.52-140.745
					c12.275,2.062,78.281,100.698,44.212,161.191c0.064-0.032,0.16-0.095,0.223-0.127c-9.677,10.475-21.206,19.218-34.069,25.703
					c-16.15,8.145-34.394,12.734-53.704,12.734c-3.549,0-6.454-6.408-6.454-6.408s2.904-6.44,6.454-6.44
					c21.378,0,41.218-6.319,57.898-17.137c1.628-8.935,2.477-18.136,2.477-27.535c0-72.367-50.321-133.025-117.986-149.087
					c-0.696-0.064-1.392-0.115-2.094-0.165c-5.624,3.863-10.82,8.241-15.729,13.103c-2.521,2.507-9.109,0-9.109,0
					s-2.579-6.535-0.064-9.049c2.509-2.526,5.12-4.919,7.813-7.178c3.824-3.214,7.833-6.16,11.982-8.82
					c19.151-12.492,41.467-19.091,64.812-19.091c65.782,0,119.295,53.346,119.295,118.924
					C246.841,145.212,240.866,165.779,230.404,183.419"/>
				<path id="Fill-1" class="st0" d="M90.772,93.979c26.634,25.785,43.836,61.252,45.892,100.723
					c-11.821,13.519-28.312,22.854-46.935,25.437c-3.462,0.483-6.984,0.74-10.581,0.74c-17.852,0-35.22-6.299-48.9-17.719
					c-2.252-1.873-0.68-7.447-0.68-7.447s5.215-2.538,7.452-0.665c11.79,9.834,26.755,15.256,42.128,15.256
					c5.593,0,11.035-0.695,16.219-2.024c3.371-8.867,5.2-18.474,5.2-28.504c0-40.769-30.308-74.469-69.639-79.817
					c-10.868,11.737-17.535,27.431-17.535,44.636c0,2.915-5.291,5.287-5.291,5.287s-5.291-2.372-5.291-5.287
					c0-16.978,5.563-32.658,14.995-45.346c4.777-6.45,10.551-12.115,17.081-16.782h0.015c7.407-5.287,15.781-9.275,24.82-11.646
					c6.198-1.646,12.713-2.507,19.424-2.507c42.098,0,76.336,34.214,76.336,76.282c0,10.257-2.041,20.06-5.729,29.002
					C143.814,138.691,121.397,109.402,90.772,93.979"/>
			</g>
			<g class="st1">
				<g>
					<path class="st0" d="M395.825,136.127c-2.352,10.247-6.834,18.12-13.446,23.621c-6.809,5.451-14.867,8.177-24.174,8.177
						c-8.419-0.203-15.442-2.325-21.07-6.37c-5.727-3.892-9.887-8.391-12.481-13.497c-0.784-1.669-1.493-3.261-2.129-4.778
						c-0.588-1.566-1.078-3.537-1.469-5.915c-0.735-4.448-1.1-12.992-1.1-25.629c0-12.84,0.367-21.432,1.102-25.781
						c0.783-4.347,1.982-7.86,3.598-10.54c2.595-5.105,6.757-9.655,12.486-13.649c5.63-4.044,12.657-6.116,21.079-6.218
						c10.331,0.102,18.753,3.256,25.265,9.464c6.512,6.259,10.625,14.007,12.339,23.244h-17.213
						c-1.324-4.458-3.728-8.257-7.209-11.399c-3.629-2.988-8.043-4.533-13.24-4.634c-3.826,0.101-7.111,0.886-9.858,2.355
						c-2.796,1.52-5.052,3.419-6.767,5.699c-2.109,2.381-3.506,5.445-4.193,9.195c-0.784,3.951-1.176,11.372-1.176,22.262
						c0,10.892,0.392,18.262,1.178,22.111c0.686,3.851,2.084,6.966,4.194,9.347c1.717,2.279,3.974,4.129,6.771,5.548
						c2.746,1.672,6.034,2.507,9.861,2.507c9.126,0,15.945-5.04,20.459-15.122H395.825z"/>
					<path class="st0" d="M422.851,56.459h16.213v94.79h52.196v15.765h-68.409V56.459z"/>
					<path class="st0" d="M522.109,56.459h16.213v110.555h-16.213V56.459z"/>
					<path class="st0" d="M575.035,56.459h15.279l30.704,72.062l30.117-72.062h15.332v110.555h-16.212V98.066h-0.368l-22.412,53.096
						h-13.522l-22.412-53.096h-0.294v68.948h-16.213V56.459z"/>
					<path class="st0" d="M760.485,142.287h-40.614l-8.224,24.727h-17.186l38.925-110.555h13.585l38.924,110.555h-17.113
						L760.485,142.287z M755.858,127.439l-15.496-48.365h-0.294l-15.496,48.365H755.858z"/>
					<path class="st0" d="M819.878,71.313h-29.349V56.459h74.931v14.855h-29.368v95.701h-16.213V71.313z"/>
					<path class="st0" d="M892.215,56.459h68.409v15.765h-52.196v31.634h44.555v14.847h-44.555v32.544h52.196v15.765h-68.409V56.459
						z"/>
					<path class="st0" d="M991.473,56.459h41.84c8.922,0,16.202,2.425,21.84,7.279c6.785,5.51,10.324,13.371,10.618,23.582
						c-0.197,15.015-7.089,25.225-20.679,30.634l24.785,49.06h-19.262l-22.162-47.247h-20.765v47.247h-16.214V56.459z
						 M1007.687,104.919h24.593c6.087-0.101,10.652-1.925,13.696-5.473c2.994-3.295,4.492-7.351,4.492-12.166
						c-0.099-5.777-1.89-9.96-5.376-12.545c-2.748-2.281-6.724-3.421-11.928-3.421h-25.476V104.919z"/>
					<path class="st0" d="M1099.071,56.459h16.214v110.555h-16.214V56.459z"/>
					<path class="st0" d="M1206.874,142.287h-40.614l-8.224,24.727h-17.186l38.925-110.555h13.585l38.924,110.555h-17.113
						L1206.874,142.287z M1202.247,127.439l-15.496-48.365h-0.294l-15.496,48.365H1202.247z"/>
					<path class="st0" d="M1254.817,56.459h16.214v71.339c0.097,7.54,2.206,13.282,6.326,17.228
						c4.022,4.149,9.194,6.224,15.52,6.224c6.324,0,11.548-2.075,15.667-6.224c4.02-3.946,6.08-9.688,6.178-17.228V56.459h16.213
						v73.097c-0.197,11.628-3.846,20.852-10.947,27.677c-7.152,7.026-16.189,10.59-27.111,10.692
						c-10.727-0.102-19.692-3.662-26.891-10.68c-7.348-6.817-11.07-16.033-11.168-27.645V56.459z"/>
					<path class="st0" d="M1396.456,125.862l-23.494,41.152h-18.28l32.743-56.642l-30.687-53.913h18.353l21.365,38.341
						l21.364-38.341h18.28l-31.62,53.913l33.75,56.642h-18.355L1396.456,125.862z"/>
				</g>
			</g>
			<g id="Page-1" transform="translate(1.000000, 64.076923)">
			</g>
		</g>
	</g>
</g>
</svg>
