<?xml version="1.0" encoding="UTF-8" standalone="no"?>
<svg width="222px" height="222px" viewBox="0 0 222 222" version="1.1" xmlns="http://www.w3.org/2000/svg" xmlns:xlink="http://www.w3.org/1999/xlink" xmlns:sketch="http://www.bohemiancoding.com/sketch/ns">
    <!-- Generator: Sketch 3.2.2 (9983) - http://www.bohemiancoding.com/sketch -->
    <title>Imported Layers</title>
    <desc>Created with Sketch.</desc>
    <defs></defs>
    <g id="Welcome" stroke="none" stroke-width="1" fill="none" fill-rule="evenodd" sketch:type="MSPage">
        <g id="Desktop-HD" sketch:type="MSArtboardGroup" transform="translate(-609.000000, -1504.000000)">
            <g id="Rectangle-35" sketch:type="MSLayerGroup" transform="translate(0.000000, 1129.000000)">
                <g id="Imported-Layers" transform="translate(624.609550, 388.381465)" sketch:type="MSShapeGroup">
                    <path d="M190.842615,95.6053549 C190.842615,100.546879 185.345864,104.999665 184.602133,109.732121 C183.838524,114.590704 187.683302,120.517242 186.196527,125.094783 C184.684389,129.753209 178.078554,132.287377 175.881636,136.590731 C173.662098,140.938642 175.477897,147.769995 172.626359,151.688118 C169.761111,155.624748 162.697385,155.996956 159.262516,159.432511 C155.827646,162.867381 155.455438,169.930421 151.518122,172.795669 C147.599999,175.647207 140.768646,173.831408 136.420736,176.050946 C132.118066,178.247864 129.583899,184.853699 124.925473,186.365837 C120.347932,187.852612 114.421394,184.007834 109.562811,184.771443 C104.830355,185.515174 100.377568,191.011925 95.4360449,191.011925 C90.4938358,191.011925 86.0410494,185.515174 81.3085929,184.771443 C76.4500107,184.007834 70.5234726,187.852612 65.9459314,186.365837 C61.2875052,184.853699 58.7533378,178.247864 54.4506684,176.050946 C50.1027583,173.831408 43.2707197,175.647207 39.3525967,172.795669 C35.4159661,169.930421 35.0437581,162.866695 31.6088886,159.431826 C28.174019,155.996956 21.110293,155.624748 18.2450456,151.687432 C15.3935075,147.769309 17.2093066,140.937956 14.9897681,136.590046 C12.7928499,132.287377 6.18701512,129.753209 4.67487737,125.094783 C3.18878732,120.517242 7.03288003,114.590704 6.26927103,109.732121 C5.52554054,104.999665 0.0294750333,100.546879 0.0294750333,95.6053549 C0.0294750333,90.6631459 5.52554054,86.2110449 6.26927103,81.477903 C7.03288003,76.6193207 3.18878732,70.6927827 4.67487737,66.1152414 C6.18701512,61.4568153 12.7935354,58.9226479 14.9897681,54.6199785 C17.2099921,50.2720683 15.3935075,43.4400298 18.2450456,39.5219068 C21.110293,35.5852762 28.174019,35.2130682 31.6088886,31.7781986 C35.0437581,28.3433291 35.4166516,21.2796031 39.3532822,18.4143557 C43.2714052,15.5628176 50.1027583,17.3786167 54.4506684,15.1590781 C58.7533378,12.96216 61.2875052,6.35632519 65.9459314,4.84418744 C70.5234726,3.35741193 76.4500107,7.2021901 81.3085929,6.4385811 C86.0410494,5.69485061 90.4938358,0.198785108 95.4360449,0.198785108 C100.377568,0.198785108 104.829669,5.69485061 109.562811,6.4385811 C114.421394,7.2021901 120.347932,3.35741193 124.925473,4.84418744 C129.583899,6.35632519 132.118066,12.9628454 136.420736,15.1590781 C140.769331,17.3793022 147.600685,15.5628176 151.518808,18.4143557 C155.455438,21.2796031 155.827646,28.3433291 159.263201,31.7781986 C162.698071,35.2130682 169.761797,35.5859617 172.626359,39.5225923 C175.477897,43.4407153 173.662098,50.2720683 175.881636,54.6199785 C178.078554,58.9226479 184.684389,61.4568153 186.196527,66.1152414 C187.683302,70.6927827 183.838524,76.6193207 184.602133,81.477903 C185.345864,86.2110449 190.842615,90.6631459 190.842615,95.6053549 L190.842615,95.6053549 Z" id="Stroke-1" stroke="#DFE1E2" stroke-width="20.116"></path>
                    <path d="M185.035348,95.7698668 C185.035348,145.305745 144.878699,185.462393 95.3428215,185.462393 C45.8069435,185.462393 5.65029533,145.305745 5.65029533,95.7698668 C5.65029533,46.2339888 45.8069435,6.07665511 95.3428215,6.07665511 C144.878699,6.07665511 185.035348,46.2339888 185.035348,95.7698668" id="Fill-2" fill="#FFFFFF"></path>
                    <path d="M176.669922,95.6053549 C176.669922,140.469097 140.299787,176.838547 95.4360449,176.838547 C50.5716169,176.838547 14.2021678,140.469097 14.2021678,95.6053549 C14.2021678,50.740927 50.5716169,14.3714778 95.4360449,14.3714778 C140.299787,14.3714778 176.669922,50.740927 176.669922,95.6053549 L176.669922,95.6053549 Z" id="Stroke-3" stroke="#DFE1E2" stroke-width="2.387"></path>
                    <path d="M142.413079,95.6053549 C142.413079,121.550239 121.380929,142.582389 95.4360449,142.582389 C69.491161,142.582389 48.4583256,121.550239 48.4583256,95.6053549 C48.4583256,69.660471 69.491161,48.6276357 95.4360449,48.6276357 C121.380929,48.6276357 142.413079,69.660471 142.413079,95.6053549" id="Fill-4" fill="#DFE1E2"></path>
                    <path d="M140.078382,95.5525741 C140.078382,120.259507 120.049754,140.288134 95.3428215,140.288134 C70.635889,140.288134 50.6072612,120.259507 50.6072612,95.5525741 C50.6072612,70.8456415 70.635889,50.8170137 95.3428215,50.8170137 C120.049754,50.8170137 140.078382,70.8456415 140.078382,95.5525741 L140.078382,95.5525741 Z" id="Stroke-5" stroke="#FFFFFF" stroke-width="1.023"></path>
                    <path d="M40.0908435,54.1696274 L54.1291849,59.1543353 L47.4171029,45.8556116 L49.3329801,43.6806283 L62.0490578,54.8852538 L60.5711933,56.5619033 L55.6193877,52.198913 L50.4132743,47.3321051 L57.0314475,60.5794189 L55.9004288,61.8632965 L41.9594235,56.9793521 L47.4239576,61.4999996 L52.3757632,65.86299 L50.8985842,67.5396396 L38.1825064,56.3356996 L40.0908435,54.1696274" id="Fill-6" fill="#AFB1B1"></path>
                    <path d="M70.5234726,44.8815646 L64.356336,48.400061 L65.1692985,53.0427215 L63.1677381,54.1847076 L60.3895449,36.2577182 L62.0881293,35.2884695 L76.1182452,46.7953853 L74.1269668,47.9318878 L70.5234726,44.8815646 L70.5234726,44.8815646 Z M64.0375943,46.4787001 L69.0414953,43.6230492 L62.6063416,38.1687971 L64.0375943,46.4787001 L64.0375943,46.4787001 Z" id="Fill-7" fill="#AFB1B1"></path>
                    <path d="M83.1696328,29.3310854 L77.9347298,30.8391104 L82.12087,45.3682454 L79.9842728,45.9837937 L75.7981326,31.4546587 L70.5748825,32.9599418 L70.0690087,31.2030928 L82.6630735,27.5749218 L83.1696328,29.3310854" id="Fill-8" fill="#AFB1B1"></path>
                    <path d="M98.2519387,35.6764432 L90.9105991,35.9225254 L91.112126,41.9251502 L99.6393217,41.6393109 L99.7003282,43.4660775 L88.9398846,43.8266326 L88.3716334,26.888085 L99.0162332,26.5316427 L99.0779251,28.3584093 L90.6665732,28.6401358 L90.8495926,34.0957588 L98.1902468,33.8496766 L98.2519387,35.6764432 L98.2519387,35.6764432 Z M94.509295,22.024019 L97.1154363,21.9362794 L94.1124102,25.4616305 L92.378867,25.5137259 L94.509295,22.024019 L94.509295,22.024019 Z" id="Fill-9" fill="#AFB1B1"></path>
                    <path d="M109.051454,38.3668968 L105.166233,37.5004679 L103.673288,44.1919859 L101.480483,43.7032487 L105.171031,27.1615859 L110.646533,28.3830861 C112.510315,28.7991639 113.848344,29.5428944 114.662678,30.614963 C115.477011,31.6870317 115.703215,33.0339721 115.341974,34.6544135 C115.112343,35.6846687 114.633203,36.5195662 113.905923,37.1604768 C113.178644,37.8013874 112.276571,38.2003286 111.200389,38.3573002 L113.519321,46.2456417 L113.488475,46.3820494 L111.148294,45.8597244 L109.051454,38.3668968 L109.051454,38.3668968 Z M105.563803,35.7168856 L108.915046,36.4647289 C109.998768,36.7060129 110.92209,36.6175878 111.687756,36.1987682 C112.452736,35.780634 112.940787,35.1006518 113.15054,34.1595071 C113.3788,33.1354211 113.249247,32.2820161 112.761881,31.5999775 C112.273829,30.9172535 111.455383,30.444282 110.305856,30.1796922 L106.965581,29.4345908 L105.563803,35.7168856 L105.563803,35.7168856 Z" id="Fill-10" fill="#AFB1B1"></path>
                    <path d="M117.078945,48.3520784 L115.029402,47.4630291 L121.771644,31.9139209 L123.821873,32.8029701 L117.078945,48.3520784" id="Fill-11" fill="#AFB1B1"></path>
                    <path d="M130.584679,51.3523626 L124.753421,47.3005737 L120.913441,50.0321553 L119.02087,48.7174317 L134.006525,38.4930225 L135.612572,39.608961 L131.265347,57.2261198 L129.382372,55.9175654 L130.584679,51.3523626 L130.584679,51.3523626 Z M126.351242,46.1853207 L131.082328,49.4728151 L133.235376,41.3164565 L126.351242,46.1853207 L126.351242,46.1853207 Z" id="Fill-12" fill="#AFB1B1"></path>
                    <path d="M152.546321,56.5365411 L143.652401,63.863486 C142.413079,64.8738627 141.084646,65.3173591 139.666417,65.1939753 C138.247502,65.0705914 136.947859,64.3892383 135.766116,63.1512869 L135.370602,62.7077905 C134.191601,61.2758523 133.637744,59.8164954 133.709718,58.3304053 C133.781692,56.8429444 134.489778,55.5357609 135.833977,54.408855 L144.745719,47.0668298 L146.152295,48.7736399 L137.293334,56.0711098 C136.347391,56.8511699 135.826437,57.7175988 135.731843,58.669711 C135.637248,59.6225085 135.986836,60.5814753 136.781291,61.5452404 C137.585342,62.5220293 138.461368,63.0546362 139.409367,63.1430613 C140.357366,63.2321719 141.30468,62.8866971 142.250623,62.1073224 L151.118495,54.8023124 L152.546321,56.5365411" id="Fill-13" fill="#AFB1B1"></path>
                    <path d="M152.488056,70.293156 L160.072736,71.3748212 L161.138636,73.7794356 L151.285749,72.2906036 L145.69646,80.7650184 L144.62165,78.3391547 L148.976415,71.8498491 L141.234077,70.6989518 L140.16338,68.2826846 L150.200657,69.8434904 L155.708375,61.531531 L156.770162,63.9258634 L152.488056,70.293156" id="Fill-14" fill="#AFB1B1"></path>
                    <path d="M136.396745,144.910231 L130.411256,149.166974 L133.891367,154.061201 L140.844733,149.116935 L141.904463,150.606452 L133.129129,156.846248 L123.307773,143.034796 L131.987142,136.862176 L133.046873,138.351008 L126.188101,143.228783 L129.352212,147.677457 L135.3377,143.420714 L136.396745,144.910231 L136.396745,144.910231 Z M125.741177,135.590637 L127.866122,134.079184 L127.307467,138.676604 L125.889923,139.676699 L125.741177,135.590637 L125.741177,135.590637 Z" id="Fill-15" fill="#AFB1B1"></path>
                    <path d="M126.999007,160.044632 L124.976197,160.994688 L117.769894,145.655332 L119.792704,144.704591 L126.999007,160.044632" id="Fill-16" fill="#AFB1B1"></path>
                    <path d="M116.798589,156.389728 L109.934334,158.250083 L111.892024,165.473522 L109.734863,166.058225 L105.302641,149.700267 L115.436569,146.95429 L115.914338,148.717994 L107.937572,150.879268 L109.456564,156.485693 L116.32082,154.626024 L116.798589,156.389728" id="Fill-17" fill="#AFB1B1"></path>
                    <path d="M102.950122,166.963725 L100.724414,167.164566 L99.2026799,150.284969 L101.428388,150.084813 L102.950122,166.963725" id="Fill-18" fill="#AFB1B1"></path>
                    <path d="M89.8193374,160.264667 L85.85803,159.869838 L85.1787333,166.69228 L82.943429,166.469504 L84.622135,149.604987 L90.2052547,150.1609 C92.1046806,150.350088 93.5229096,150.927936 94.4599414,151.894443 C95.3969733,152.861635 95.7835761,154.170875 95.6190643,155.823533 C95.514188,156.873667 95.1392381,157.76066 94.4942147,158.483826 C93.8491913,159.206993 93.00127,159.711496 91.9511363,159.997335 L95.2002446,167.549798 L95.1865353,167.688948 L92.8004285,167.451091 L89.8193374,160.264667 L89.8193374,160.264667 Z M86.038993,158.051297 L89.4560404,158.391289 C90.560326,158.501649 91.4671974,158.302863 92.1766546,157.795619 C92.8861118,157.287688 93.2884802,156.55424 93.3844455,155.595273 C93.4879508,154.551309 93.2569488,153.719153 92.690754,153.100177 C92.1245592,152.481887 91.2547029,152.109679 90.0818708,151.984924 L86.6764763,151.646304 L86.038993,158.051297 L86.038993,158.051297 Z" id="Fill-19" fill="#AFB1B1"></path>
                    <path d="M77.8929164,157.255472 L71.0005568,154.717877 L68.9256516,160.354463 L76.9318932,163.301966 L76.3005791,165.017002 L66.1968119,161.296978 L72.051376,145.392799 L82.0468396,149.07238 L81.4155256,150.787415 L73.5175876,147.879669 L71.6318709,153.002841 L78.5242304,155.540436 L77.8929164,157.255472" id="Fill-20" fill="#AFB1B1"></path>
                    <path d="M56.167075,152.068551 L68.1161164,143.344627 L70.123846,144.738864 L55.2972188,155.077061 L53.6712937,153.94947 L58.1802883,136.44884 L60.1791068,137.836223 L56.167075,152.068551" id="Fill-21" fill="#AFB1B1"></path>
                    <path d="M70.2479153,73.8486676 L63.5947834,80.5017995 L73.4120258,90.319042 L70.2479153,73.8486676" id="Fill-22" fill="#597F3B"></path>
                    <path d="M120.623489,73.8274182 L127.276621,80.4805501 L117.459378,90.2977926 L120.623489,73.8274182" id="Fill-23" fill="#597F3B"></path>
                    <path d="M95.5566869,128.733236 L79.3454186,116.049375 L79.0986509,115.803293 C73.3914619,110.095418 70.2479153,102.507311 70.2479153,94.4359501 L70.2479153,73.8486676 L81.7294689,79.0438136 L81.7294689,94.4359501 C81.7294689,99.3315475 83.5946216,103.94062 86.9883632,107.451576 L95.3311686,113.978583 L103.841913,106.89018 C107.271984,103.371683 109.157701,98.7386195 109.157701,93.8156035 L109.157701,79.0438136 L120.63994,73.8486676 L120.63994,93.8156035 C120.63994,101.886279 117.496394,109.475072 111.789205,115.182261 L111.604814,115.367337 L95.5566869,128.733236" id="Fill-24" fill="#6DA642"></path>
                </g>
            </g>
        </g>
    </g>
</svg>