<?xml version="1.0" encoding="utf-8"?>
<!-- Generator: Adobe Illustrator 19.2.1, SVG Export Plug-In . SVG Version: 6.00 Build 0)  -->
<svg version="1.1" xmlns="http://www.w3.org/2000/svg" xmlns:xlink="http://www.w3.org/1999/xlink" x="0px" y="0px"
	 viewBox="0 0 923.877 896.049" style="enable-background:new 0 0 923.877 896.049;" xml:space="preserve">
<style type="text/css">
	.st0{fill:none;stroke:#E0E2E7;stroke-width:59;stroke-miterlimit:10;}
	.st1{fill:#FFFFFF;}
	.st2{fill:none;stroke:#E0E2E7;stroke-width:7;stroke-miterlimit:10;}
	.st3{fill:#E0E2E7;}
	.st4{fill:none;stroke:#FFFFFF;stroke-width:3;stroke-miterlimit:10;}
	.st5{fill:#B6B7BC;}
	.st6{fill:#5D853F;}
	.st7{fill:#74AD49;}
</style>
<g id="badge">
	<g id="fond">
		<g>
			<path class="st0" d="M-240.242,446.388c0,21.144-23.519,40.195-26.701,60.446c-3.267,20.789,13.183,46.147,6.824,65.733
				c-6.472,19.933-34.737,30.775-44.136,49.187c-9.498,18.604-1.728,47.834-13.929,64.599
				c-12.259,16.845-42.482,18.438-57.18,33.135c-14.698,14.698-16.291,44.921-33.135,57.18
				c-16.765,12.201-45.995,4.431-64.599,13.928c-18.411,9.399-29.254,37.664-49.187,44.136c-19.586,6.359-44.944-10.09-65.732-6.824
				c-20.251,3.182-39.302,26.701-60.446,26.701c-21.144,0-40.195-23.519-60.446-26.701c-20.789-3.267-46.147,13.183-65.733,6.824
				c-19.933-6.472-30.775-34.737-49.187-44.136c-18.604-9.498-47.834-1.728-64.599-13.929
				c-16.845-12.259-18.438-42.482-33.135-57.18c-14.698-14.698-44.921-16.291-57.18-33.135
				c-12.201-16.765-4.431-45.995-13.928-64.599c-9.399-18.411-37.664-29.254-44.136-49.187c-6.359-19.586,10.09-44.944,6.824-65.732
				c-3.182-20.251-26.701-39.302-26.701-60.446c0-21.144,23.519-40.195,26.701-60.446c3.267-20.789-13.183-46.147-6.824-65.733
				c6.472-19.933,34.737-30.775,44.136-49.187c9.498-18.604,1.728-47.834,13.929-64.599c12.259-16.845,42.482-18.438,57.18-33.135
				c14.698-14.698,16.291-44.921,33.135-57.18c16.765-12.201,45.995-4.431,64.599-13.928c18.411-9.399,29.254-37.664,49.187-44.136
				c19.586-6.359,44.944,10.09,65.732,6.824c20.251-3.182,39.302-26.701,60.446-26.701c21.144,0,40.195,23.519,60.446,26.701
				c20.789,3.267,46.147-13.183,65.733-6.824c19.933,6.472,30.775,34.737,49.187,44.136c18.604,9.498,47.834,1.728,64.599,13.929
				c16.845,12.259,18.438,42.482,33.135,57.18c14.698,14.698,44.921,16.291,57.18,33.135c12.201,16.765,4.431,45.995,13.928,64.599
				c9.399,18.411,37.664,29.254,44.136,49.187c6.359,19.586-10.09,44.944-6.824,65.732
				C-263.761,406.192-240.242,425.243-240.242,446.388z"/>
		</g>
		<circle class="st1" cx="-648.861" cy="447.092" r="383.773"/>
		<circle class="st2" cx="-648.463" cy="446.388" r="347.579"/>
		<circle class="st3" cx="-648.463" cy="446.388" r="201.005"/>
		<circle class="st4" cx="-648.861" cy="446.163" r="191.413"/>
	</g>
	<path id="SVGID_x5F_1_x5F_" style="fill:none;" d="M-565.147,240.269c113.836,46.014,168.817,175.599,122.803,289.435
		S-617.943,698.521-731.78,652.507c-113.836-46.014-168.817-175.599-122.803-289.435
		C-808.568,249.235-678.983,194.255-565.147,240.269z"/>
	<text>	<textPath  xlink:href="#SVGID_x5F_1_x5F_" startOffset="100.4557%">
<tspan  class="st5" style="font-family:'Roboto-Regular'; font-size:102px;">MATÉRIAUX 					    </tspan><tspan  class="st5" style="font-family:'Roboto-Regular'; font-size:102px;">SÉIFIREV</tspan>	</textPath>
</text>
	<g id="V">
		<polygon class="st6" points="-756.236,353.297 -784.704,381.764 -742.697,423.771 		"/>
		<polygon class="st6" points="-540.691,353.205 -512.223,381.673 -554.23,423.68 		"/>
		<g>
			<path class="st7" d="M-647.946,588.134l-69.364-54.269l-1.056-1.055c-24.42-24.42-37.869-56.889-37.869-91.424v-88.09
				l49.126,22.23v65.86c0,20.946,7.98,40.667,22.501,55.689l35.697,27.928l36.417-30.331c14.676-15.055,22.746-34.879,22.746-55.943
				v-63.204l49.126-22.23v85.434c0,34.535-13.448,67.003-37.868,91.424l-0.79,0.791L-647.946,588.134z"/>
		</g>
	</g>
</g>
<g id="badge_-_copie">
	<g id="fond_-_copie">
		<g>
			<path class="st0" d="M871.476,446.388c0,21.144-23.519,40.195-26.701,60.446c-3.267,20.789,13.183,46.147,6.824,65.733
				c-6.472,19.933-34.737,30.775-44.136,49.187c-9.498,18.604-1.728,47.834-13.929,64.599
				c-12.259,16.845-42.482,18.438-57.18,33.135s-16.291,44.921-33.135,57.18c-16.765,12.201-45.995,4.431-64.599,13.928
				c-18.411,9.399-29.254,37.664-49.187,44.136c-19.586,6.359-44.944-10.09-65.732-6.824c-20.251,3.182-39.302,26.701-60.446,26.701
				c-21.144,0-40.195-23.519-60.446-26.701c-20.789-3.267-46.147,13.183-65.733,6.824c-19.933-6.472-30.775-34.737-49.187-44.136
				c-18.604-9.498-47.834-1.728-64.599-13.929c-16.845-12.259-18.438-42.482-33.135-57.18
				c-14.698-14.698-44.921-16.291-57.18-33.135c-12.201-16.765-4.431-45.995-13.928-64.599
				c-9.399-18.411-37.664-29.254-44.136-49.187c-6.359-19.586,10.09-44.944,6.824-65.732c-3.182-20.251-26.701-39.302-26.701-60.446
				c0-21.144,23.519-40.195,26.701-60.446c3.267-20.789-13.183-46.147-6.824-65.733c6.472-19.933,34.737-30.775,44.136-49.187
				c9.498-18.604,1.728-47.834,13.929-64.599c12.259-16.845,42.482-18.438,57.18-33.135c14.698-14.698,16.291-44.921,33.135-57.18
				c16.765-12.201,45.995-4.431,64.599-13.928c18.411-9.399,29.254-37.664,49.187-44.136c19.586-6.359,44.944,10.09,65.732,6.824
				c20.251-3.182,39.302-26.701,60.446-26.701c21.144,0,40.195,23.519,60.446,26.701c20.789,3.267,46.147-13.183,65.733-6.824
				c19.933,6.472,30.775,34.737,49.187,44.136c18.604,9.498,47.834,1.728,64.599,13.929c16.845,12.259,18.438,42.482,33.135,57.18
				c14.698,14.698,44.921,16.291,57.18,33.135c12.201,16.765,4.431,45.995,13.928,64.599c9.399,18.411,37.664,29.254,44.136,49.187
				c6.359,19.586-10.09,44.944-6.824,65.732C847.957,406.192,871.476,425.243,871.476,446.388z"/>
		</g>
		<circle class="st1" cx="462.857" cy="447.092" r="383.773"/>
		<circle class="st2" cx="463.254" cy="446.388" r="347.579"/>
		<circle class="st3" cx="463.254" cy="446.388" r="201.005"/>
		<circle class="st4" cx="462.857" cy="446.163" r="191.413"/>
	</g>
	<g>
		<path class="st5" d="M205.427,301.354l62.328,13.348l-35.869-52.691l6.922-10.29l60.173,40.468l-5.336,7.934l-23.433-15.759
			l-24.793-17.754l35.439,52.523l-4.085,6.077l-61.859-12.974l25.696,16.141l23.434,15.761l-5.337,7.935l-60.173-40.468
			L205.427,301.354z"/>
		<path class="st5" d="M329.378,245.037l-24.208,18.357l6.027,19.242l-7.857,5.959l-21.749-74.515l6.667-5.056l65.92,41.021
			l-7.818,5.928L329.378,245.037z M302.747,255.418l19.645-14.895l-30.335-19.564L302.747,255.418z"/>
		<path class="st5" d="M374.386,172.033l-21.369,9.309l25.834,59.313l-8.722,3.799l-25.834-59.314l-21.324,9.287l-3.122-7.169
			l51.415-22.393L374.386,172.033z"/>
		<path class="st5" d="M441.898,190.575l-31.007,5.123l4.19,25.355l36.018-5.951l1.275,7.715l-45.453,7.511L395.1,158.781
			l44.961-7.428l1.275,7.715l-35.527,5.869l3.808,23.047l31.007-5.123L441.898,190.575z M418.436,134.734l11.008-1.819
			l-10.782,16.623l-7.326,1.185L418.436,134.734z"/>
		<path class="st5" d="M489.213,195.99l-16.967-1.518l-2.615,29.218l-9.573-0.856l6.465-72.228l23.91,2.14
			c8.136,0.729,14.228,3.142,18.279,7.238c4.05,4.096,5.759,9.683,5.125,16.759c-0.403,4.499-1.969,8.308-4.698,11.431
			c-2.73,3.123-6.336,5.316-10.815,6.582l14.222,32.176l-0.054,0.596l-10.219-0.914L489.213,195.99z M472.943,186.684l14.634,1.31
			c4.729,0.424,8.601-0.467,11.614-2.667c3.015-2.202,4.706-5.356,5.073-9.465c0.4-4.474-0.624-8.021-3.072-10.645
			s-6.186-4.177-11.208-4.661l-14.585-1.305L472.943,186.684z"/>
		<path class="st5" d="M528.819,233.889l-9.192-2.633l19.963-69.715l9.192,2.634L528.819,233.889z"/>
		<path class="st5" d="M587.781,239.113l-26.988-13.951l-14.774,13.726l-8.761-4.528l57.896-51.705l7.434,3.842l-8.653,77.157
			l-8.716-4.506L587.781,239.113z M566.949,219.543l21.901,11.319l4.601-35.801L566.949,219.543z"/>
		<path class="st5" d="M683.838,248.901l-33.663,36.028c-4.694,4.975-10.085,7.595-16.172,7.86
			c-6.087,0.265-11.98-1.901-17.68-6.501l-1.924-1.662c-5.8-5.417-8.959-11.3-9.479-17.648c-0.521-6.35,1.756-12.287,6.831-17.815
			l33.73-36.1l6.914,6.46l-33.526,35.882c-3.582,3.834-5.309,7.798-5.182,11.892c0.127,4.097,2.144,7.968,6.05,11.618
			c3.954,3.694,7.967,5.468,12.037,5.317c4.071-0.15,7.897-2.141,11.479-5.975l33.561-35.918L683.838,248.901z"/>
		<path class="st5" d="M691.234,307.299l32.776,0.373l5.859,9.61l-42.628-0.842L668.24,355.5l-5.91-9.695l14.871-29.951
			l-33.487-0.581l-5.886-9.653l43.45,1.04l18.75-38.323l5.834,9.568L691.234,307.299z"/>
		<path class="st5" d="M648.878,648.869c-7.634,3.813-13.988,5.717-19.064,5.715c-5.075-0.004-9.319-1.862-12.734-5.58
			c-3.864-4.204-5.38-9.227-4.546-15.065c0.834-5.841,3.94-11.231,9.32-16.175c3.666-3.369,7.589-5.664,11.764-6.887
			c4.176-1.221,8.198-1.31,12.066-0.265c3.869,1.045,7.162,3.047,9.881,6.005l-7.078,6.503c-2.977-3.238-6.342-4.84-10.098-4.806
			c-3.756,0.035-7.504,1.771-11.245,5.208c-3.472,3.189-5.476,6.443-6.013,9.761s0.443,6.335,2.941,9.053
			c2.004,2.181,4.62,3.176,7.851,2.985c3.229-0.188,7.638-1.698,13.223-4.528c5.585-2.828,10.321-4.641,14.209-5.44
			c3.888-0.799,7.358-0.752,10.41,0.141c3.053,0.894,5.825,2.695,8.319,5.41c3.977,4.327,5.474,9.343,4.492,15.047
			s-4.296,11.15-9.943,16.341c-3.667,3.369-7.736,5.812-12.206,7.326c-4.47,1.516-8.69,1.842-12.66,0.981
			c-3.97-0.861-7.382-2.845-10.235-5.95l7.078-6.503c2.966,3.228,6.5,4.681,10.602,4.36c4.103-0.32,8.146-2.311,12.131-5.974
			c3.717-3.414,5.869-6.79,6.456-10.126c0.587-3.334-0.32-6.31-2.725-8.927c-2.403-2.615-5.18-3.796-8.327-3.542
			C659.597,644.192,654.975,645.836,648.878,648.869z"/>
		<path class="st5" d="M611.492,677.084l-27.637,14.961l12.233,22.602l32.104-17.379l3.723,6.876l-40.514,21.931l-34.521-63.771
			l40.076-21.693l3.723,6.876l-31.667,17.142l11.119,20.541l27.638-14.96L611.492,677.084z M571.094,631.956l9.811-5.311
			l-4.768,19.23l-6.538,3.511L571.094,631.956z"/>
		<path class="st5" d="M563.788,736.461l-9.082,2.993l-22.696-68.871l9.082-2.993L563.788,736.461z"/>
		<path class="st5" d="M522.325,715.685l-30.118,4.346l4.572,31.696l-9.464,1.365L476.96,681.32l44.464-6.415l1.117,7.739l-35,5.049
			l3.549,24.598l30.119-4.345L522.325,715.685z"/>
		<path class="st5" d="M457.922,753.4l-9.558-0.315l2.39-72.477l9.557,0.316L457.922,753.4z"/>
		<path class="st5" d="M405.666,718.039l-16.612-3.766l-6.484,28.608l-9.374-2.125l16.029-70.721l23.412,5.306
			c7.966,1.806,13.682,5.008,17.15,9.607s4.418,10.363,2.848,17.293c-0.998,4.404-3.059,7.972-6.18,10.703
			s-6.986,4.425-11.595,5.083l9.808,33.783l-0.132,0.583l-10.006-2.268L405.666,718.039z M390.782,706.647l14.329,3.247
			c4.63,1.05,8.586,0.685,11.866-1.096c3.28-1.781,5.376-4.682,6.289-8.705c0.991-4.38,0.449-8.031-1.628-10.959
			c-2.077-2.926-5.573-4.963-10.488-6.112l-14.28-3.236L390.782,706.647z"/>
		<path class="st5" d="M356.726,699.047l-27.981-14.307l-11.699,22.882l32.505,16.619l-3.561,6.962l-41.019-20.971l33.011-64.567
			l40.576,20.745l-3.561,6.963l-32.061-16.393l-10.634,20.799l27.981,14.306L356.726,699.047z"/>
		<path class="st5" d="M266.987,665.716l55.325-30.762l7.795,6.975l-68.396,36.107l-6.31-5.646l28.349-71.941l7.757,6.941
			L266.987,665.716z"/>
	</g>
	<g id="V_-_copie">
		<polygon class="st6" points="355.482,353.297 327.014,381.764 369.021,423.771 		"/>
		<polygon class="st6" points="571.027,353.205 599.495,381.673 557.488,423.68 		"/>
		<g>
			<path class="st7" d="M463.771,588.134l-69.364-54.269l-1.056-1.055c-24.42-24.42-37.869-56.889-37.869-91.424v-88.09
				l49.126,22.23v65.86c0,20.946,7.98,40.667,22.501,55.689l35.697,27.928l36.417-30.331c14.676-15.055,22.746-34.879,22.746-55.943
				v-63.204l49.126-22.23v85.434c0,34.535-13.448,67.003-37.868,91.424l-0.79,0.791L463.771,588.134z"/>
		</g>
	</g>
</g>
</svg>
