<?xml version="1.0" encoding="UTF-8" standalone="no"?>
<svg width="70px" height="71px" viewBox="0 0 70 71" version="1.1" xmlns="http://www.w3.org/2000/svg" xmlns:xlink="http://www.w3.org/1999/xlink">
    <!-- Generator: Sketch 3.8.3 (29802) - http://www.bohemiancoding.com/sketch -->
    <title>paypal</title>
    <desc>Created with Sketch.</desc>
    <defs>
        <linearGradient x1="100%" y1="100%" x2="18.879544%" y2="18.879544%" id="linearGradient-1">
            <stop stop-color="#75AD31" offset="0%"></stop>
            <stop stop-color="#3DA581" offset="100%"></stop>
        </linearGradient>
    </defs>
    <g id="Welcome" stroke="none" stroke-width="1" fill="none" fill-rule="evenodd">
        <g id="home" transform="translate(-258.000000, -3794.000000)" fill="url(#linearGradient-1)">
            <g id="rassure" transform="translate(-1.000000, 3706.000000)">
                <g id="paypal" transform="translate(161.000000, 88.000000)">
                    <path d="M141.945312,19.09375 C141.945312,14.6666445 138.55993,12.453125 131.789062,12.453125 L128.859375,12.453125 C127.947912,12.453125 127.101566,12.7460908 126.320312,13.3320312 C125.539059,13.9179717 125.083334,14.6666621 124.953125,15.578125 L122.21875,27.296875 L122.21875,27.8828125 C122.21875,28.5338574 122.446612,29.0872373 122.902344,29.5429688 C123.358075,29.9987002 123.911455,30.2265625 124.5625,30.2265625 L126.90625,30.2265625 C128.859385,30.2265625 130.682283,30.031252 132.375,29.640625 C134.067717,29.249998 135.662753,28.6640664 137.160156,27.8828125 C138.65756,27.1015586 139.829423,25.9622471 140.675781,24.4648438 C141.52214,22.9674404 141.945312,21.1770937 141.945312,19.09375 L141.945312,19.09375 Z M167.53125,25.5390625 C167.53125,33.0911836 164.406281,39.1458105 158.15625,43.703125 C152.036428,48.2604395 143.37766,50.5390625 132.179688,50.5390625 L129.640625,50.5390625 C128.729162,50.5390625 127.882816,50.8320283 127.101562,51.4179688 C126.320309,52.0039092 125.864584,52.7525996 125.734375,53.6640625 L122.609375,67.140625 C122.348957,68.0520879 121.763025,68.8658818 120.851562,69.5820312 C119.9401,70.2981807 118.963547,70.65625 117.921875,70.65625 L108.9375,70.65625 C108.026037,70.65625 107.277347,70.3958359 106.691406,69.875 C106.105466,69.3541641 105.8125,68.6380254 105.8125,67.7265625 C105.8125,67.4661445 106.007811,66.5546953 106.398438,64.9921875 L112.648438,64.9921875 C113.690109,64.9921875 114.63411,64.6666699 115.480469,64.015625 C116.326827,63.3645801 116.815104,62.5833379 116.945312,61.671875 L120.070312,48.1953125 C120.33073,47.2838496 120.88411,46.5026074 121.730469,45.8515625 C122.576827,45.2005176 123.455725,44.875 124.367188,44.875 L126.90625,44.875 C137.974014,44.875 146.567678,42.596377 152.6875,38.0390625 C158.807322,33.481748 161.867188,27.4922246 161.867188,20.0703125 C161.867188,16.4244609 161.151049,13.5599062 159.71875,11.4765625 C164.927109,14.0807422 167.53125,18.7681953 167.53125,25.5390625 L167.53125,25.5390625 Z M159.71875,17.7265625 C159.71875,25.1484746 156.593781,31.2031016 150.34375,35.890625 C144.223928,40.4479395 135.56516,42.7265625 124.367188,42.7265625 L121.828125,42.7265625 C120.916662,42.7265625 120.070316,43.0195283 119.289062,43.6054688 C118.507809,44.1914092 118.052084,44.9400996 117.921875,45.8515625 L114.796875,59.1328125 C114.536457,60.1744844 113.983077,61.0533818 113.136719,61.7695312 C112.29036,62.4856807 111.281256,62.84375 110.109375,62.84375 L101.125,62.84375 C100.213537,62.84375 99.4648467,62.5833359 98.8789062,62.0625 C98.2929658,61.5416641 98,60.8255254 98,59.9140625 L98,59.1328125 L110.890625,3.859375 C111.020834,2.94791211 111.541662,2.13411816 112.453125,1.41796875 C113.364588,0.701819336 114.341141,0.34375 115.382812,0.34375 L134.328125,0.34375 C136.151051,0.34375 137.876294,0.376301758 139.503906,0.44140625 C141.131519,0.506510742 142.856762,0.701821289 144.679688,1.02734375 C146.502613,1.35286621 148.097649,1.77603906 149.464844,2.296875 C150.832038,2.81771094 152.199212,3.53384961 153.566406,4.4453125 C154.933601,5.35677539 156.04036,6.39843164 156.886719,7.5703125 C157.733077,8.74219336 158.416664,10.2070225 158.9375,11.9648438 C159.458336,13.722665 159.71875,15.6432188 159.71875,17.7265625 L159.71875,17.7265625 Z"></path>
                </g>
            </g>
        </g>
    </g>
</svg>