<?xml version="1.0" encoding="UTF-8" standalone="no"?>
<svg width="30px" height="30px" viewBox="0 0 30 30" version="1.1" xmlns="http://www.w3.org/2000/svg" xmlns:xlink="http://www.w3.org/1999/xlink">
    <!-- Generator: Sketch 3.8.3 (29802) - http://www.bohemiancoding.com/sketch -->
    <title>papypal</title>
    <desc>Created with Sketch.</desc>
    <defs></defs>
    <g id="Produit" stroke="none" stroke-width="1" fill="none" fill-rule="evenodd">
        <g transform="translate(-688.000000, -880.000000)" id="papypal">
            <g transform="translate(689.000000, 880.000000)">
                <path d="M14.9670116,7 C17.6241185,7 19.507609,7.65585832 20.6175397,8.96759463 C21.6265677,10.1447939 21.9629053,11.809665 21.6265626,13.9622579 C20.8529745,18.8728605 17.9100206,21.328125 12.7976124,21.328125 L10.3255063,21.328125 C10.0564322,21.328125 9.82099586,21.4122094 9.61919027,21.5803807 C9.41738468,21.748552 9.29966652,21.9671715 9.26603226,22.2362456 L8.40836281,27.5840669 C8.37472854,27.853141 8.25701038,28.0717605 8.05520479,28.2399318 C7.85339921,28.4081031 7.61796289,28.4921875 7.34888877,28.4921875 L3.66595523,28.4921875 C3.46414965,28.4921875 3.29598085,28.4165115 3.16144379,28.2651574 C3.02690673,28.1138032 2.97645609,27.9540428 3.01009036,27.7858715 L6.13806131,7.9081206 C6.20532984,7.63904648 6.33145644,7.42042704 6.51644489,7.25225572 C6.70143335,7.0840844 6.92846123,7 7.19753534,7 L14.9670116,7 Z M15.8751322,14.2649648 C16.0096692,13.2895711 15.8751342,12.5664453 15.471523,12.0955656 C15.2697174,11.8264915 14.9670136,11.6330973 14.5634024,11.5153774 C14.1597912,11.3976575 13.7982283,11.33039 13.4787028,11.3135728 C13.1591773,11.2967557 12.6967131,11.2883473 12.0912963,11.2883473 L11.5363338,11.2883473 C11.1663568,11.2883473 10.9645543,11.473333 10.93092,11.8433099 L10.0732506,17.0397777 L11.2336269,17.0397777 C11.8054094,17.0397777 12.2342398,17.0313693 12.5201311,17.0145522 C12.8060223,16.997735 13.1759937,16.9388759 13.6300562,16.8379732 C14.0841188,16.7370704 14.4372733,16.5941269 14.6895303,16.4091384 C14.9417873,16.22415 15.1772236,15.9466715 15.3958463,15.5766945 C15.614469,15.2067176 15.7742294,14.7694788 15.8751322,14.2649648 L15.8751322,14.2649648 Z" id="ï—" stroke="#68C258" stroke-width="0.8" fill="#E9F6E6"></path>
                <ellipse id="Oval-96" stroke="#68C258" stroke-width="0.8" cx="27.3355263" cy="18.1931818" rx="1.20394737" ry="1.19318182"></ellipse>
                <path d="M16.8026316,1.59090909 C17.2459128,1.59090909 17.6052632,1.23477196 17.6052632,0.795454545 C17.6052632,0.356137131 17.2459128,0 16.8026316,0 C16.3593504,0 16,0.356137131 16,0.795454545 C16,1.23477196 16.3593504,1.59090909 16.8026316,1.59090909 Z" id="Oval-96-Copy-2" fill="#68C258"></path>
                <path d="M12.8026316,29.5909091 C13.2459128,29.5909091 13.6052632,29.234772 13.6052632,28.7954545 C13.6052632,28.3561371 13.2459128,28 12.8026316,28 C12.3593504,28 12,28.3561371 12,28.7954545 C12,29.234772 12.3593504,29.5909091 12.8026316,29.5909091 Z" id="Oval-96-Copy-3" fill="#68C258"></path>
                <ellipse id="Oval-96-Copy" stroke="#68C258" stroke-width="0.8" cx="1.20394737" cy="3.94318182" rx="1.20394737" ry="1.19318182"></ellipse>
            </g>
        </g>
    </g>
</svg>