<?xml version="1.0" encoding="UTF-8" standalone="no"?>
<svg width="57px" height="50px" viewBox="0 0 57 50" version="1.1" xmlns="http://www.w3.org/2000/svg" xmlns:xlink="http://www.w3.org/1999/xlink">
    <!-- Generator: Sketch 3.8.3 (29802) - http://www.bohemiancoding.com/sketch -->
    <title>ic_return</title>
    <desc>Created with Sketch.</desc>
    <defs>
        <rect id="path-1" x="13.3035914" y="0.235042829" width="31.4842495" height="30.4716238"></rect>
        <mask id="mask-2" maskContentUnits="userSpaceOnUse" maskUnits="objectBoundingBox" x="0" y="0" width="31.4842495" height="30.4716238" fill="white">
            <use xlink:href="#path-1"></use>
        </mask>
        <rect id="path-3" x="11.0138278" y="0.235042829" width="36.0637767" height="8.31044286" rx="2"></rect>
        <mask id="mask-4" maskContentUnits="userSpaceOnUse" maskUnits="objectBoundingBox" x="0" y="0" width="36.0637767" height="8.31044286" fill="white">
            <use xlink:href="#path-3"></use>
        </mask>
    </defs>
    <g id="Paiement" stroke="none" stroke-width="1" fill="none" fill-rule="evenodd">
        <g id="paiement" transform="translate(-1094.000000, -1013.000000)">
            <g id="paiement-+-livraison-+-retour" transform="translate(161.000000, 1014.000000)">
                <g id="retour" transform="translate(806.000000, 0.000000)">
                    <g id="ic_return" transform="translate(127.000000, 0.000000)">
                        <g id="Group-4">
                            <g id="Group-3" transform="translate(0.000000, 18.293333)">
                                <g id="Group-2" transform="translate(7.636706, 10.737849)">
                                    <path d="M45.7554997,2.94 L0.485499228,2.94" id="Path-453-Copy" stroke="#68C258" stroke-linecap="round"></path>
                                    <path d="M48.8459244,3.22057305 L44.3249863,5.82107679 C44.0555945,5.97603454 43.8372093,5.81352185 43.8372093,5.47223179 L43.8372093,0.407762647 C43.8372093,0.0601431286 44.0594859,-0.0938016957 44.3249863,0.0589176547 L48.8459244,2.6594214 C49.1153162,2.81437915 49.1114248,3.06785369 48.8459244,3.22057305 Z" id="Triangle-7" fill="#68C258"></path>
                                </g>
                                <g id="Group-2-Copy" transform="translate(25.363294, 21.166882) scale(-1, 1) translate(-25.363294, -21.166882) translate(0.363294, 18.166882)">
                                    <path d="M46.1413634,2.94 L0.441756817,2.94" id="Path-453-Copy" stroke="#68C258" stroke-linecap="round"></path>
                                    <path d="M48.9508404,3.22057305 L44.8408966,5.82107679 C44.595995,5.97603454 44.397463,5.81352185 44.397463,5.47223179 L44.397463,0.407762647 C44.397463,0.0601431286 44.5995327,-0.0938016957 44.8408966,0.0589176547 L48.9508404,2.6594214 C49.195742,2.81437915 49.1922043,3.06785369 48.9508404,3.22057305 Z" id="Triangle-7" fill="#68C258"></path>
                                </g>
                                <use id="Rectangle-201" stroke="#68C258" mask="url(#mask-2)" stroke-width="2" fill="#E9F6E6" xlink:href="#path-1"></use>
                                <use id="Rectangle-201-Copy" stroke="#68C258" mask="url(#mask-4)" stroke-width="2" fill="#FFFFFF" xlink:href="#path-3"></use>
                            </g>
                            <ellipse id="Oval-244" stroke="#68C258" cx="29.3255814" cy="7.51333333" rx="7.48837209" ry="7.51333333"></ellipse>
                            <path d="M29.2435501,3.92 L29.2435501,6.91020933 C29.2435501,7.46758975 29.6898209,7.91943587 30.2531428,7.91943587 L31.8742996,7.91943587" id="Path-460" stroke="#68C258" stroke-linecap="round"></path>
                        </g>
                        <circle id="Oval-100" stroke="#68C258" cx="44.5" cy="4.5" r="1.5"></circle>
                        <circle id="Oval-100-Copy" stroke="#68C258" cx="13.5" cy="12.5" r="1.5"></circle>
                        <circle id="Oval-100-Copy-2" fill="#68C258" cx="1" cy="28" r="1"></circle>
                        <circle id="Oval-100-Copy-3" fill="#68C258" cx="54" cy="45" r="1"></circle>
                        <text id="30" font-family=".HelveticaNeueDeskInterface-Regular, .Helvetica Neue DeskInterface" font-size="14.3255814" font-weight="normal" fill="#68C258">
                            <tspan x="21.5375499" y="41.44">30</tspan>
                        </text>
                    </g>
                </g>
            </g>
        </g>
    </g>
</svg>