<?xml version="1.0" encoding="UTF-8" standalone="no"?>
<svg width="64px" height="67px" viewBox="0 0 64 67" version="1.1" xmlns="http://www.w3.org/2000/svg" xmlns:xlink="http://www.w3.org/1999/xlink">
    <!-- Generator: Sketch 3.8.3 (29802) - http://www.bohemiancoding.com/sketch -->
    <title>return</title>
    <desc>Created with Sketch.</desc>
    <defs>
        <linearGradient x1="100%" y1="100%" x2="18.879544%" y2="18.879544%" id="linearGradient-1">
            <stop stop-color="#75AD31" offset="0%"></stop>
            <stop stop-color="#3DA581" offset="100%"></stop>
        </linearGradient>
    </defs>
    <g id="Welcome" stroke="none" stroke-width="1" fill="none" fill-rule="evenodd">
        <g id="home" transform="translate(-1120.000000, -3794.000000)" fill="url(#linearGradient-1)">
            <g id="rassure" transform="translate(-1.000000, 3706.000000)">
                <g id="retour" transform="translate(1011.000000, 88.000000)">
                    <g id="return" transform="translate(110.000000, 0.000000)">
                        <path d="M11.255814,49.1005778 C11.9538605,49.4035667 12.6548837,49.7035778 13.3618605,49.9961444 C14.0658605,50.2879667 14.7735814,50.5730889 15.4827907,50.8522556 C21.7294884,53.0275222 27.8072558,55.9397889 34.4282791,56.8011111 C35.5140465,56.9477667 36.6072558,57.0371 37.7056744,57.0579444 C38.8070698,57.0750667 39.915907,57.0244444 41.0329302,56.8897 C42.0948837,56.7847333 43.1501395,56.6358444 44.1994419,56.4445222 C48.427907,55.6524333 52.459907,54.2551111 56.4733023,52.6969889 C55.8139535,55.4447333 55.5616744,58.3986889 54.3188837,60.9491556 C53.9058605,61.8008 53.3812093,62.6055444 52.6965581,63.3455222 C51.8474419,64.1606889 50.9291163,64.8180333 49.9579535,65.3428667 C49.4727442,65.6056556 48.9726512,65.8349444 48.4636279,66.0344556 C47.9538605,66.2347111 47.4329302,66.4037 46.903814,66.5503556 C44.8669767,66.9166222 42.8226977,67.0431778 40.7813953,66.9866 C39.7603721,66.9583111 38.7408372,66.8838667 37.7205581,66.7751778 C27.0325581,65.5096222 16.759814,61.5893778 7.52669767,56.0834667 L7.52669767,46.8560778 L11.255814,49.1005778 L11.255814,49.1005778 Z" id="Shape"></path>
                        <path d="M0.0669767442,3.74455556 L19.6457674,26.7888333 C20.0089302,25.1845556 20.4256744,23.5892111 20.8967442,22.0050333 C22.6210233,22.8105222 24.3274419,23.6554667 26.0204651,24.5465667 C27.7127442,25.4369222 29.3886512,26.3726889 31.051907,27.3561 C35.6405581,30.2475222 40.2411163,33.1895667 44.5938605,36.4375778 C45.4667907,37.0867333 46.3307907,37.7478 47.1851163,38.4237556 C52.9905116,42.7117556 59.1642791,49.0730333 57.8604651,56.9284111 C60.7464186,50.9170222 63.435907,44.6048778 63.8980465,37.8959444 C63.9464186,36.9884667 63.9449302,36.0757778 63.8861395,35.1563889 C63.8146977,34.3866333 63.6978605,33.6161333 63.528186,32.8478667 C63.3294884,31.9850556 63.063814,31.1319222 62.72,30.2907 C62.4744186,29.7204556 62.2035349,29.1606333 61.9103256,28.6149556 C61.6156279,28.0715111 61.3015814,27.5377444 60.9666977,27.0173778 C56.3572093,20.1558333 49.3596279,15.3802222 42.5696744,10.8904778 C40.7590698,9.75817778 38.9127442,8.68841111 37.0329302,7.6782 C35.5311628,6.86824444 34.0093023,6.09402222 32.4710698,5.35106667 C31.3458605,4.79124444 30.2169302,4.24631111 29.0805581,3.71403333 C29.8426047,2.46783333 30.6418605,1.22982222 31.4850233,0 L0.0669767442,3.74455556 L0.0669767442,3.74455556 Z" id="Shape"></path>
                    </g>
                </g>
            </g>
        </g>
    </g>
</svg>