<?xml version="1.0" encoding="UTF-8" standalone="no"?>
<svg width="129px" height="65px" viewBox="0 0 129 65" version="1.1" xmlns="http://www.w3.org/2000/svg" xmlns:xlink="http://www.w3.org/1999/xlink">
    <!-- Generator: Sketch 3.8.3 (29802) - http://www.bohemiancoding.com/sketch -->
    <title>truck</title>
    <desc>Created with Sketch.</desc>
    <defs>
        <linearGradient x1="100%" y1="100%" x2="18.879544%" y2="18.879544%" id="linearGradient-1">
            <stop stop-color="#75AD31" offset="0%"></stop>
            <stop stop-color="#3DA581" offset="100%"></stop>
        </linearGradient>
    </defs>
    <g id="Welcome" stroke="none" stroke-width="1" fill="none" fill-rule="evenodd">
        <g id="home" transform="translate(-643.000000, -3797.000000)" fill="url(#linearGradient-1)">
            <g id="rassure" transform="translate(-1.000000, 3706.000000)">
                <g id="livraison" transform="translate(588.000000, 73.000000)">
                    <g id="truck" transform="translate(56.000000, 18.000000)">
                        <path d="M40.119,49.0470588 C37.926,51.1176471 36.249,53.8352941 35.733,56.9411765 L25.671,56.9411765 C24.639,56.9411765 23.865,56.0352941 23.994,55 L24.639,51.1176471 C24.768,50.0823529 25.8,49.1764706 26.961,49.1764706 L40.119,49.1764706 L40.119,49.0470588 Z" id="Shape"></path>
                        <path d="M124.872,49.0470588 L128.613,27.9529412 L128.613,27.0470588 L122.808,8.92941176 C122.55,8.28235294 122.034,7.89411765 121.26,7.89411765 L102.813,7.89411765 C101.781,7.89411765 100.749,8.8 100.491,9.83529412 L93.654,49.0470588 L57.663,49.0470588 C59.211,51.1176471 59.856,53.8352941 59.211,56.9411765 L96.105,56.9411765 C96.621,53.9647059 98.298,51.1176471 100.491,49.0470588 C103.071,46.5882353 106.425,45.1647059 109.908,45.1647059 C113.391,45.1647059 116.229,46.7176471 117.906,49.0470588 C119.454,51.1176471 120.099,53.8352941 119.583,56.9411765 L123.453,56.9411765 C124.485,56.9411765 125.517,56.0352941 125.775,55 L126.42,51.1176471 C126.678,49.9529412 125.904,49.0470588 124.872,49.0470588 L124.872,49.0470588 Z M101.265,27.4352941 L103.974,11.7764706 L119.583,11.7764706 L124.614,27.4352941 L101.265,27.4352941 L101.265,27.4352941 Z" id="Shape"></path>
                        <path d="M48.891,49.0470588 C44.634,49.0470588 40.506,52.5411765 39.732,56.9411765 C38.958,61.2117647 41.925,64.8352941 46.182,64.8352941 C50.439,64.8352941 54.567,61.3411765 55.341,56.9411765 C56.115,52.5411765 53.148,49.0470588 48.891,49.0470588 L48.891,49.0470588 Z M51.342,56.8117647 C50.955,59.0117647 48.891,60.6941176 46.698,60.6941176 C44.505,60.6941176 43.086,58.8823529 43.473,56.8117647 C43.86,54.6117647 45.924,52.9294118 48.117,52.9294118 C50.31,52.9294118 51.729,54.7411765 51.342,56.8117647 L51.342,56.8117647 Z" id="Shape"></path>
                        <path d="M109.263,49.0470588 C105.006,49.0470588 100.878,52.5411765 100.104,56.9411765 C99.33,61.2117647 102.297,64.8352941 106.554,64.8352941 C110.811,64.8352941 114.939,61.3411765 115.713,56.9411765 C116.358,52.5411765 113.52,49.0470588 109.263,49.0470588 L109.263,49.0470588 Z M111.714,56.8117647 C111.327,59.0117647 109.263,60.6941176 107.07,60.6941176 C104.877,60.6941176 103.458,58.8823529 103.845,56.8117647 C104.232,54.6117647 106.296,52.9294118 108.489,52.9294118 C110.682,52.9294118 112.101,54.7411765 111.714,56.8117647 L111.714,56.8117647 Z" id="Shape"></path>
                        <path d="M98.298,0 L90.3,45.0352941 L25.671,45.0352941 L26.316,41.1529412 L15.996,41.1529412 C14.964,41.1529412 14.061,40.2470588 14.061,39.2117647 C14.061,38.1764706 14.964,37.2705882 15.996,37.2705882 L45.279,37.2705882 C46.311,37.2705882 47.214,36.3647059 47.214,35.3294118 C47.214,34.2941176 46.311,33.3882353 45.279,33.3882353 L27.864,33.3882353 L28.896,27.5647059 L10.191,27.5647059 C9.159,27.5647059 8.256,26.6588235 8.256,25.6235294 C8.256,24.5882353 9.159,23.6823529 10.191,23.6823529 L53.148,23.6823529 C54.18,23.6823529 55.083,22.7764706 55.083,21.7411765 C55.083,20.7058824 54.18,19.8 53.148,19.8 L30.186,19.8 L31.218,13.9764706 L2.322,13.9764706 C1.29,13.9764706 0.387,13.0705882 0.387,12.0352941 C0.387,11 1.29,10.0941176 2.322,10.0941176 L45.279,10.0941176 C46.311,10.0941176 47.214,9.18823529 47.214,8.15294118 C47.214,7.11764706 46.311,6.21176471 45.279,6.21176471 L32.508,6.21176471 L33.54,0.388235294 L98.298,0.388235294 L98.298,0 Z" id="Shape"></path>
                    </g>
                </g>
            </g>
        </g>
    </g>
</svg>