<?xml version="1.0" encoding="UTF-8" standalone="no"?>
<svg width="172px" height="30px" viewBox="0 0 172 30" version="1.1" xmlns="http://www.w3.org/2000/svg" xmlns:xlink="http://www.w3.org/1999/xlink">
    <!-- Generator: Sketch 3.8.3 (29802) - http://www.bohemiancoding.com/sketch -->
    <title>logo</title>
    <desc>Created with Sketch.</desc>
    <defs></defs>
    <g id="Symbols" stroke="none" stroke-width="1" fill="none" fill-rule="evenodd">
        <g id="header" transform="translate(-19.000000, -14.000000)">
            <g id="logo" transform="translate(19.000000, 14.000000)">
                <g id="CLIMATÉRIAUX" transform="translate(42.926829, 3.428571)" font-size="17.5813953" font-family="Helvetica" fill="#FFFFFF" font-weight="normal">
                    <text id="CLIMATÉRIAU">
                        <tspan x="0" y="18">CLIMATÉRIAU</tspan>
                    </text>
                    <text id="X">
                        <tspan x="117.391393" y="18">X</tspan>
                    </text>
                </g>
                <g>
                    <g id="Page-1-Copy" transform="translate(2.296086, 0.000000)">
                        <path id="Fill-3" fill="#65BD76"></path>
                        <path id="Fill-5" fill="#65BD76"></path>
                        <path id="Fill-9" fill="#65BD76"></path>
                        <path d="M26.61026,22.2631663 C30.1976002,13.8724711 21.4092566,4.57486605 19.1507683,4.77569874 C20.6892285,5.03187902 28.9615519,17.2874176 24.6917849,24.8036208 C24.6997853,24.7996674 24.7117857,24.7917606 24.7197861,24.7878072 C23.5069386,26.0892663 22.0620821,27.1756605 20.4500191,27.9813634 C18.42594,28.9934337 16.1394505,29.5635139 13.7193559,29.5635139 C13.2745386,29.5635139 12.9105243,28.7672992 12.9105243,28.7672992 C12.9105243,28.7672992 13.2745386,27.9671311 13.7193559,27.9671311 C16.3986607,27.9671311 18.8851579,27.181986 20.9756397,25.8378302 C21.1796476,24.7277155 21.2860518,23.5843924 21.2860518,22.4165582 C21.2860518,13.4249463 14.9794052,5.88818536 6.49907364,3.89250928 C6.41187024,3.88460249 6.3246668,3.87827705 6.23666336,3.87195161 C5.53183581,4.3518943 4.88061034,4.89588207 4.26538629,5.49996153 C3.94937395,5.8114894 3.12374167,5.49996153 3.12374167,5.49996153 C3.12374167,5.49996153 2.80052903,4.68793328 3.11574135,4.37561472 C3.43015365,4.0617148 3.75736644,3.76441914 4.09497965,3.48372777 C4.57419836,3.08443442 5.07661804,2.71834962 5.59663836,2.38784542 C7.99673219,0.835740757 10.7936415,0.0158056914 13.7193559,0.0158056914 C21.9636783,0.0158056914 28.6703405,6.64407536 28.6703405,14.7920318 C28.6703405,17.5159241 27.9215112,20.0714016 26.61026,22.2631663" id="Fill-11" fill="#FFFFFF"></path>
                        <path id="Fill-16" fill="#65BD76"></path>
                    </g>
                    <g id="Page-1" transform="translate(0.000000, 7.961538)" fill="#FFFFFF">
                        <path d="M11.6600066,3.18876319 C15.0722248,6.39252229 17.2760297,10.7993333 17.5394018,15.7035059 C16.0250121,17.3832741 13.9122255,18.5431588 11.5263839,18.8640977 C11.0829118,18.9241565 10.6316934,18.9560627 10.1707922,18.9560627 C7.88371515,18.9560627 5.65860806,18.1734221 3.90602155,16.7545341 C3.61747415,16.5218064 3.81887636,15.8292539 3.81887636,15.8292539 C3.81887636,15.8292539 4.48698945,15.5139454 4.77360029,15.7466731 C6.28411684,16.9684933 8.20131095,17.6422775 10.1707922,17.6422775 C10.8873193,17.6422775 11.5844808,17.555943 12.2487207,17.3907815 C12.6805735,16.2890787 12.9148973,15.095411 12.9148973,13.8491919 C12.9148973,8.7836114 9.03209507,4.59639023 3.99316673,3.93199025 C2.60078031,5.39029187 1.74675748,7.34032449 1.74675748,9.47804074 C1.74675748,9.84027008 1.06896159,10.1349334 1.06896159,10.1349334 C1.06896159,10.1349334 0.391165694,9.84027008 0.391165694,9.47804074 C0.391165694,7.36847705 1.10381966,5.42032124 2.31223291,3.84377898 C2.92418578,3.04236998 3.66395158,2.33855647 4.50054538,1.75861413 L4.50248194,1.75861413 C5.4513962,1.10172152 6.52425025,0.606236809 7.68231298,0.31157355 C8.47630243,0.106998422 9.31095967,1.87683604e-05 10.1707922,1.87683604e-05 C15.5641109,1.87683604e-05 19.9504187,4.25105239 19.9504187,9.47804074 C19.9504187,10.7524124 19.6889831,11.970479 19.2164625,13.0815659 C18.4553946,8.74419784 15.5834765,5.10501277 11.6600066,3.18876319" id="Fill-1"></path>
                    </g>
                </g>
            </g>
        </g>
    </g>
</svg>